<svg id="Block" xmlns="http://www.w3.org/2000/svg" viewBox="0 0 125.83 69.99"><defs><style>
	.cls-1{fill:#f84e07;}</style></defs><title>Button up</title>



<g id="Layer_2" data-name="Layer 2"><g id="Layer_5" data-name="Layer 5"><path class="cls-1" d="M0,70q2.85-5,5.92-9.82C8,57,10,53.8,12.16,50.69c5.31-5.17,10.5-10.47,15.76-15.7L59.38,3.54,62.92,0l3.53,3.54L97.91,35l15.73,15.73c2.1,3.15,4.2,6.29,6.23,9.51l3,4.83c1,1.64,2,3.25,2.93,4.93-1.67-.95-3.28-2-4.93-2.94l-4.83-3c-3.22-2-6.36-4.12-9.5-6.23L90.84,42.07,59.38,10.61h7.07L35,42.07C29.77,47.32,24.47,52.52,19.3,57.83Q14.62,61,9.81,64.07C6.62,66.12,3.34,68.09,0,70Z"/></g></g></svg>