<svg xmlns="http://www.w3.org/2000/svg" viewBox="0 0 69.99 125.83"><defs><style>.cls-1{fill:#f84e07;}</style></defs><title>Button left</title><g id="Layer_2" data-name="Layer 2"><g id="Layer_5" data-name="Layer 5"><path class="cls-1" d="M70,125.83q-5-2.85-9.81-5.91t-9.49-6.24c-5.17-5.32-10.47-10.51-15.7-15.77L3.54,66.45,0,62.92l3.54-3.54L35,27.92,50.72,12.19C53.87,10.09,57,8,60.23,6l4.83-3C66.7,2,68.31,1,70,0,69,1.67,68,3.29,67.06,4.93L64,9.76c-2,3.22-4.12,6.36-6.23,9.5L42.07,35,10.61,66.45V59.38L42.07,90.84c5.25,5.23,10.45,10.52,15.76,15.69q3.2,4.68,6.24,9.49T70,125.83Z"/></g></g></svg>