
<svg version="1.1" id="Block" xmlns="http://www.w3.org/2000/svg" xmlns:xlink="http://www.w3.org/1999/xlink" x="0px" y="0px"
	 viewBox="0 0 325.2 232.8" style="enable-background:new 0 0 325.2 232.8;" xml:space="preserve">
<style type="text/css">
	.st0{opacity:0.9;}
	.st1{fill:#F9F9F9;}
	.st2{fill:none;stroke:#F9F9F9;stroke-width:3;stroke-miterlimit:10;}
	.st3{display:none;}
	.st4{display:inline;opacity:0.9;}

<defs>

	<style>
	

	#Block:hover .st0{
				fill:#0073A5;
				transition: .6s;

	}

	
	#Block:hover .st1{
				fill:#F84E07;
				transition: .8s;
				stroke:#F84E07;


	}

	#Block:hover .st2{
				fill:#F84E07;
				transition: .8s;
				stroke-width:.1;
				<!-- stroke:none; -->

				stroke-dasharray:2000;
			stroke-dashoffset:0;

			
			-webkit-animation: dash 6s linear forwards;
			-o-animation: dash 6s linear forwards;
			-moz-animation: dash 6s linear forwards;
			-animation: dash 6s linear forwards;
	}

	@-webkit-keyframes dash{
		from{

				stroke-dashoffset:2000;
				
		}
		to{
			stroke-dashoffset: 0;
			
		}	

	}

	</style>

</defs>





</style>
<g id="Layer_1">
	<g class="st0">
		<g>
			<path class="st1" d="M247.9,188.7c9.7,0.6,19.4,1.3,29.1,2.4c4.8,0.6,9.7,1.2,14.4,2.4c1.2,0.3,2.4,0.7,3.5,1.2
				c0.6,0.3,1.1,0.6,1.7,1.1c0.3,0.2,0.5,0.7,0.4,1.1c0,0.5-0.3,0.8-0.6,1c-1.1,0.9-2.3,1.3-3.4,1.7c-1.2,0.4-2.4,0.7-3.6,1
				c-4.8,1.1-9.6,1.7-14.5,2.3c-4.8,0.6-9.7,1.1-14.5,1.5c-9.7,0.8-19.4,1.4-29.2,1.9c-19.5,0.9-38.9,1.4-58.4,1.5
				c-19.5,0.1-39-0.1-58.4-0.7c-9.7-0.3-19.5-0.7-29.2-1.4c-9.7-0.6-19.5-1.4-29.2-2.8c-2.4-0.4-4.9-0.8-7.3-1.3
				c-1.2-0.3-2.4-0.6-3.7-0.9c-0.6-0.2-1.2-0.4-1.9-0.6c-0.6-0.2-1.3-0.5-1.9-1c-0.3-0.2-0.7-0.6-1.1-1.1c-0.1-0.2-0.2-0.3-0.2-0.5
				c-0.1-0.2-0.1-0.4-0.1-0.6c0-0.2,0-0.5,0.1-0.8c0.1-0.3,0.2-0.4,0.3-0.6c0.2-0.4,0.4-0.5,0.6-0.7c0.2-0.2,0.4-0.2,0.6-0.4
				c0.4-0.2,0.7-0.3,1-0.5c1.3-0.5,2.5-0.8,3.7-1.1c2.4-0.5,4.9-0.9,7.3-1.3c9.7-1.3,19.4-2.1,29.2-2.8c19.5-1.2,38.9-1.9,58.4-2.3
				c9.7-0.2,19.5-0.3,29.2-0.3c9.7,0,19.5,0.1,29.2,0.3v0.3c-9.7,0.2-19.5,0.4-29.2,0.8c-9.7,0.3-19.5,0.6-29.2,1
				c-19.4,0.8-38.9,1.7-58.3,3.2c-9.7,0.7-19.4,1.5-28.9,2.9c-2.4,0.4-4.8,0.7-7.1,1.2c-1.1,0.3-2.3,0.5-3.3,0.9
				c-0.2,0.1-0.5,0.2-0.6,0.3c-0.1,0-0.2,0.1-0.2,0.1c0,0-0.1,0.1,0,0c0,0,0,0,0.1-0.2c0.1-0.1,0-0.3,0-0.3c0-0.1,0-0.1,0-0.2
				c0,0,0-0.1,0-0.1c0-0.1,0,0.1,0.2,0.2c0.3,0.2,0.8,0.5,1.3,0.7c0.5,0.2,1,0.4,1.6,0.6c1.1,0.3,2.3,0.6,3.4,0.9
				c2.3,0.5,4.7,0.9,7.1,1.3c9.6,1.4,19.2,2.3,28.9,3c9.7,0.7,19.4,1.2,29.1,1.6c19.4,0.8,38.9,1.1,58.3,1.2c19.5,0,38.9-0.3,58.4-1
				c9.7-0.4,19.4-0.9,29.1-1.6c4.8-0.4,9.7-0.8,14.5-1.3c4.8-0.6,9.7-1.2,14.4-2.2c1.2-0.3,2.4-0.5,3.5-0.9c1.1-0.4,2.3-0.8,3.1-1.5
				c0.4-0.4,0.4-0.6,0.1-1c-0.3-0.4-0.9-0.7-1.4-0.9c-1.1-0.5-2.2-0.8-3.4-1.2c-4.7-1.2-9.5-1.9-14.3-2.6c-9.6-1.2-19.3-2-29.1-2.7
				L247.9,188.7z"/>
		</g>
		<path class="st2" d="M247.9,188.8"/>
		<path class="st2" d="M137.4,144.9c-5.2,0-9.1,1.6-11.8,4.8c-2.7,3.2-4.1,7.4-4.1,12.5v1.2c0,4.7,1.4,8.6,4.3,11.7
			c2.9,3.1,6.9,4.6,12,4.6c2.7,0,5.3-0.4,7.7-1.1c2.4-0.7,4.4-1.6,5.8-2.7l-2.5-6.4c-1.7,0.7-3.2,1.3-4.6,1.6c-1.3,0.3-3,0.5-5,0.5
			c-2.1,0-3.8-0.5-4.9-1.6c-1.1-1.1-1.8-2.5-2-4.3l0.1-0.2h19.2v-5.5c0-4.7-1.2-8.4-3.7-11.1C145.4,146.2,141.9,144.9,137.4,144.9z
			 M141.4,159h-9.1l-0.1-0.2c0.1-1.8,0.6-3.3,1.4-4.3c0.8-1.1,2-1.6,3.7-1.6c1.5,0,2.5,0.4,3.1,1.3c0.6,0.9,0.9,2.2,0.9,3.9V159z"/>
		<path class="st2" d="M180.8,162.5c-2-1.6-5-2.8-9.1-3.6c-2.6-0.5-4.3-1.1-5.2-1.7c-0.9-0.6-1.3-1.4-1.3-2.3c0-0.9,0.4-1.7,1.1-2.3
			c0.7-0.6,1.7-0.9,2.8-0.9c1.5,0,2.6,0.3,3.3,1c0.7,0.7,1,1.7,1,3h10.2l0.1-0.2c0.1-3.2-1.1-5.7-3.8-7.7c-2.6-2-6.2-3-10.7-3
			c-4.2,0-7.6,1-10.1,3.1c-2.5,2.1-3.7,4.6-3.7,7.5c0,2.8,1,5,3,6.6c2,1.6,4.9,2.8,8.8,3.6c2.5,0.5,4.2,1.1,5.1,1.8
			c0.9,0.7,1.4,1.4,1.4,2.2c0,1-0.4,1.8-1.1,2.3c-0.7,0.5-1.8,0.8-3.2,0.8c-1.7,0-3-0.4-3.9-1.1c-0.9-0.7-1.4-1.9-1.4-3.4h-9.5
			l-0.1,0.2c-0.1,2.9,1.1,5.4,3.8,7.8c2.7,2.3,6.3,3.5,10.8,3.5c4.4,0,8-1,10.6-2.9c2.7-2,4-4.4,4-7.5
			C183.7,166.4,182.7,164.1,180.8,162.5z"/>
		<g>
			<g>
				<path class="st1" d="M200.9,139.2c2.9-8,4.4-16.5,4.3-25l-0.1-25.6c0-4.3-0.1-8.5-0.7-12.7c-0.6-4.2-1.5-8.4-2.8-12.4
					c-2.7-8.1-7.1-15.5-12.9-21.7c-5.8-6.2-12.7-11.4-20.4-14.8c-7.7-3.4-16.2-5.2-24.6-5.4c-17-0.1-34.1,0.1-51.2,0.1l-6.4,0
					l-1.6,0c-0.4,0-0.7,0.1-1.1,0.3c-0.3,0.2-0.6,0.5-0.7,0.8c-0.1,0.2-0.1,0.3-0.2,0.5c0,0.1,0,0.2,0,0.3l0,0.4l0,12.8l0.1,25.6
					l0.1,51.2l0.2,51.2l0,6.4l0,3.2l0,1.6l0,0.8l0,0.2l0,0.1c0,0.1,0,0.1,0,0.2c0.1,0.5,0.6,1,1.1,1.1c0.2,0,0.8,0,1.3,0l1.6,0
					l6.4,0l12.8,0l6.4,0l3.2,0l0.4,0c0.1,0,0.1,0,0.2,0c0.1,0,0.2-0.1,0.4-0.1c0.2-0.1,0.4-0.3,0.6-0.5l3-4.5l-0.3,5.4l-0.1,1
					l-1.5-1.6l0.2,0l-1.5,1.5l0-1.2l0-0.4l0.2-0.3c0.1-0.2,0.1-0.3,0.2-0.5c0-0.1,0-0.1,0-0.3l0-0.5l0-2l0-4l0-8l0-16l0-32.1
					l0.1-32.1l0.1-16l0-8l0-4l0-2c0-0.9,0.3-2,1-2.7c0.6-0.8,1.5-1.3,2.5-1.4c0.2,0,0.5,0,0.7-0.1l0.5,0l1,0l4,0l8,0l4,0
					c1.3,0,2.8,0.1,4.1,0.2c2.8,0.3,5.5,1.1,8,2.3c2.5,1.2,4.8,2.9,6.9,4.8c2,1.9,3.7,4.1,5.2,6.4c2.9,4.7,4.7,10,5.5,15.4
					c0.4,2.7,0.6,5.4,0.6,8.1l-0.1,8l-0.2,16c-0.1,2.7,0,5.3-0.2,8.1c-0.2,2.7-0.8,5.3-1.4,7.9c-1.4,5.2-3.3,10.2-6.1,14.9l-0.3-0.2
					c2.6-4.7,4.4-9.7,5.6-14.9c0.6-2.6,1.1-5.2,1.2-7.8c0.2-2.6,0-5.3,0-8l-0.2-16l-0.1-8c-0.1-2.6-0.3-5.3-0.7-7.9
					c-0.9-5.2-2.6-10.2-5.5-14.5c-1.4-2.2-3.1-4.2-5-5.9c-1.9-1.7-4-3.2-6.3-4.3c-2.3-1.1-4.8-1.7-7.3-2c-1.3-0.1-2.5-0.2-3.9-0.2
					l-4,0l-8,0l-4,0l-1,0l-0.5,0c-0.1,0-0.2,0-0.3,0c-0.4,0.1-0.7,0.2-0.9,0.5c-0.2,0.3-0.3,0.6-0.3,1l0,2l0,4l0,8l0.1,16l0.1,32.1
					l0,32.1l0,16l0,8l0,4l0,2l0,0.5c0,0.2,0,0.5,0,0.7c-0.1,0.5-0.3,1-0.5,1.4l0.2-0.7l0,1.2l0,1.5l-1.5,0l-0.2,0l-1.6,0l0.1-1.5
					l0.1-1l2.7,0.9c-0.4,0.7-1.1,1.2-1.8,1.5c-0.4,0.2-0.8,0.3-1.2,0.3c-0.2,0-0.4,0-0.6,0l-0.4,0l-3.2,0l-6.4,0l-12.8,0l-6.4,0
					l-1.6,0l-0.8,0c-0.2,0-0.7,0-1.1-0.1c-1.6-0.3-2.9-1.6-3.2-3.1c0-0.2-0.1-0.4-0.1-0.6l0-0.3l0-0.2l0-0.8l0-1.6l0-3.2l0-6.4
					l0.2-51.2l0.1-51.2l0.1-25.6l0-12.8l0-0.4c0-0.2,0-0.3,0-0.5c0.1-0.3,0.2-0.7,0.3-1c0.3-0.6,0.8-1.2,1.4-1.5
					c0.6-0.4,1.3-0.6,2-0.5l1.6,0l6.4,0l25.6,0.1c8.5,0,17,0,25.6,0.1c8.6,0.3,17.2,2.1,25,5.7c7.9,3.5,14.9,8.8,20.7,15.2
					c5.8,6.3,10.3,13.9,12.9,22.1c1.3,4.1,2.2,8.3,2.8,12.6c0.6,4.3,0.6,8.6,0.6,12.8l-0.1,25.6c0,8.6-1.6,17.1-4.5,25.1
					L200.9,139.2z"/>
				<path class="st1" d="M199.8,134.9c-0.1,1.3-0.9,2.6-2.3,3c-0.7,0.2-1.3,0.2-2,0.3c-0.6,0.1-1.3,0.1-1.9,0.2
					c-0.7,0-1.2,0.1-1.9,0.1c-0.8,0-1.7-0.3-2.3-0.8c-0.7-0.5-1.1-1.3-1.3-2.2c0-0.2-0.1-0.4-0.1-0.6l0-0.5l-0.1-0.9
					c-0.1-1.8,1.2-3.7,3.1-4.2c0.5-0.1,1-0.1,1.3-0.2l0.9,0c0.6,0,1.3,0,1.9,0.1c0.3,0,0.6,0.1,0.9,0.1l0.5,0.1l0.5,0.1
					c0.9,0.2,1.7,0.7,2.2,1.4c0.5,0.7,0.7,1.4,0.7,2.2c0,0.4-0.1,0.7-0.1,1C199.8,134.3,199.8,134.6,199.8,134.9z M199.5,134.9
					c0-0.3,0-0.6-0.1-0.9c0-0.3-0.1-0.6-0.2-0.9c-0.2-0.5-0.6-0.9-1.1-1.1c-0.4-0.2-0.9-0.2-1.2-0.1c-0.1,0-0.3,0.1-0.4,0.1
					l-0.5,0.1c-0.3,0-0.6,0.1-0.9,0.1c-0.6,0-1.3,0.1-1.9,0.1c-0.6,0-1.4-0.1-1.6,0c-0.6,0-1.2,0.5-1.3,1.3l-0.1,0.9l0,0.5
					c0,0.1,0,0.2,0,0.3c0,0.4,0.2,0.8,0.5,1.1c0.3,0.3,0.7,0.5,1.1,0.6c0.5,0.1,1.2,0.1,1.8,0.1c0.6,0.1,1.3,0.1,1.9,0.2
					c0.6,0.1,1.3,0.2,1.8,0.2c0.6,0,1.1-0.3,1.5-0.8C199.3,136.1,199.5,135.5,199.5,134.9z"/>
			</g>
		</g>
		<rect x="189.1" y="145.5" class="st2" width="10.5" height="33.6"/>
		<path class="st2" d="M225.9,149.7c-1-1.5-2.1-2.7-3.5-3.6c-1.3-0.8-2.9-1.3-4.7-1.3c-4.2,0-7.4,1.6-9.7,4.8
			c-2.3,3.2-3.4,7.4-3.4,12.7v0.7c0,5,1.1,9.1,3.4,12.1c2.3,3.1,5.5,4.6,9.6,4.6c1.6,0,3-0.3,4.3-0.9c1.3-0.6,2.4-1.5,3.3-2.8v2.6
			c0,1.9-0.5,3.3-1.6,4.2c-1.1,0.9-2.7,1.3-5,1.3c-1.8,0-3.4-0.2-4.7-0.5c-1.4-0.3-2.8-0.8-4.3-1.5l-1.8,7.8
			c1.7,0.8,3.6,1.4,5.5,1.9c1.9,0.5,3.7,0.7,5.5,0.7c5.3,0,9.5-1.2,12.5-3.6c3-2.4,4.5-5.9,4.5-10.3v-33.2h-9.3L225.9,149.7z
			 M225.3,169.6c-0.5,0.7-1.2,1.2-2,1.6c-0.8,0.4-1.8,0.5-2.9,0.5c-1.9,0-3.3-0.8-4.1-2.3c-0.8-1.5-1.2-3.6-1.2-6.4v-0.7
			c0-2.8,0.4-5.1,1.3-6.8c0.8-1.7,2.2-2.6,4.1-2.6c1.1,0,2.1,0.2,2.9,0.6c0.8,0.4,1.5,1,2,1.8V169.6z"/>
		<path class="st2" d="M269,148.2c-1.9-2.2-4.4-3.4-7.7-3.4c-2,0-3.8,0.5-5.4,1.4c-1.6,0.9-3,2.3-4.1,3.9l-0.4-4.7h-9.8v33.6h10.5
			v-23.9c0.6-0.7,1.3-1.3,2.2-1.7c0.9-0.4,1.9-0.6,3-0.6c1.3,0,2.3,0.5,3,1.4c0.7,0.9,1,2.4,1,4.5v20.2h10.5v-20.2
			C271.8,154,270.9,150.5,269,148.2z"/>
		<g>
			<path class="st1" d="M234.8,191.9c8.1,0.3,16.1,0.7,24.2,1.3c4,0.3,8.1,0.7,12.1,1.4c1,0.2,2,0.4,3,0.7c0.5,0.2,1,0.3,1.5,0.7
				c0.1,0.1,0.1,0.2,0.2,0.2c0.1,0.1,0.1,0.2,0.1,0.4c0,0.1,0,0.3-0.1,0.4c-0.1,0.1-0.1,0.2-0.2,0.3c-0.3,0.3-0.5,0.4-0.8,0.5
				c-1,0.4-2,0.7-3,0.9c-1,0.2-2,0.4-3,0.5c-8,1.2-16.1,1.7-24.2,2.3c-8.1,0.5-16.1,0.9-24.2,1.2c-16.2,0.6-32.3,0.9-48.5,1
				c-16.2,0.1-32.3,0-48.5-0.3c-8.1-0.2-16.2-0.4-24.2-0.7c-8.1-0.4-16.2-0.8-24.3-1.6c-2-0.2-4-0.4-6.1-0.7c-1-0.2-2-0.3-3.1-0.5
				c-0.5-0.1-1-0.2-1.6-0.4c-0.5-0.2-1.1-0.3-1.7-0.6c-0.2-0.1-0.3-0.2-0.6-0.4c-0.1-0.1-0.2-0.2-0.3-0.3c-0.1-0.2-0.3-0.4-0.4-0.6
				c-0.1-0.1-0.1-0.3-0.1-0.5c0-0.1,0-0.3,0-0.6c0.1-0.5,0.3-0.7,0.5-0.9c0.3-0.3,0.5-0.4,0.7-0.5c0.7-0.4,1.2-0.5,1.8-0.6
				c1.1-0.3,2.1-0.4,3.1-0.6c2-0.3,4.1-0.5,6.1-0.7c8.1-0.8,16.2-1.2,24.2-1.6c16.2-0.6,32.3-1,48.5-1.2c8.1-0.1,16.2-0.1,24.2,0
				c8.1,0.1,16.2,0.2,24.2,0.4v0.3l-24.2,0.7c-8.1,0.2-16.1,0.5-24.2,0.8c-16.1,0.6-32.3,1.1-48.4,2.1c-8,0.4-16.1,0.9-24.1,1.7
				c-2,0.2-4,0.4-5.9,0.7c-1,0.1-1.9,0.3-2.8,0.5c-0.4,0.1-0.9,0.2-1.1,0.3c0,0,0,0,0.1-0.1c0.1-0.1,0.2-0.2,0.3-0.6
				c0-0.2,0-0.3,0-0.4c0-0.1,0-0.2-0.1-0.3c0-0.1-0.1-0.2-0.2-0.3c0,0,0,0,0-0.1c0,0,0,0,0.1,0c0.3,0.1,0.7,0.3,1.1,0.4
				c0.4,0.1,0.9,0.2,1.4,0.3c0.9,0.2,1.9,0.4,2.9,0.5c2,0.3,3.9,0.5,5.9,0.8c8,0.9,16,1.4,24.1,1.8c8.1,0.4,16.1,0.8,24.2,1
				c16.1,0.5,32.3,0.7,48.4,0.8c16.1,0,32.3-0.1,48.4-0.5c8.1-0.2,16.1-0.5,24.2-0.9c8.1-0.4,16.1-0.9,24.1-2c1-0.1,2-0.3,3-0.5
				c1-0.2,2-0.4,2.8-0.8c0.2-0.1,0.4-0.2,0.5-0.3c0,0,0,0,0-0.1c0,0,0,0,0,0c0,0,0,0,0,0c0,0,0,0,0-0.1c-0.3-0.2-0.7-0.4-1.2-0.6
				c-0.9-0.3-1.9-0.5-2.9-0.7c-3.9-0.7-8-1.1-12-1.5c-8-0.7-16.1-1.2-24.2-1.6L234.8,191.9z"/>
		</g>
	</g>
</g>
<g id="Layer_2" class="st3">
	<g class="st4">
		<path class="st2" d="M97.4,156.3l-3-0.1c-1.2,0-2.2,0.3-3,0.8s-1.4,1.2-1.8,2.2v20.7h-8.2v-30.6H89l0.4,4.5
			c0.7-1.6,1.6-2.9,2.8-3.8c1.1-0.9,2.5-1.3,4-1.3c0.4,0,0.8,0,1.1,0.1c0.3,0.1,0.7,0.1,1.1,0.2L97.4,156.3z"/>
		<path class="st2" d="M119.8,179.8c-0.3-0.7-0.6-1.4-0.8-2.2c-0.2-0.8-0.4-1.6-0.5-2.4c-0.8,1.5-2,2.7-3.4,3.7s-3.1,1.5-5,1.5
			c-3.2,0-5.7-0.8-7.4-2.5c-1.7-1.7-2.6-3.9-2.6-6.8c0-3,1.2-5.3,3.5-7c2.3-1.7,5.7-2.5,10.1-2.5h4.6v-2.4c0-1.5-0.4-2.6-1.2-3.4
			s-1.9-1.2-3.5-1.2c-1.3,0-2.4,0.3-3.1,1c-0.7,0.7-1.1,1.5-1.1,2.7h-8l-0.1-0.2c-0.1-2.6,1-4.8,3.4-6.7c2.4-1.9,5.5-2.8,9.4-2.8
			c3.7,0,6.7,0.9,8.9,2.8c2.3,1.9,3.4,4.5,3.4,8V172c0,1.4,0.1,2.8,0.3,4c0.2,1.3,0.6,2.5,1,3.8H119.8z M112.3,174.3
			c1.4,0,2.7-0.4,3.9-1.1s1.9-1.5,2.3-2.5v-4.3h-4.6c-1.8,0-3.1,0.4-4,1.3c-0.9,0.9-1.3,1.9-1.3,3.2c0,1,0.3,1.9,1,2.5
			C110.1,174,111.1,174.3,112.3,174.3z"/>
		<path class="st2" d="M140.5,149.2l0.4,4.4c1-1.6,2.3-2.8,3.8-3.7s3.2-1.3,5-1.3c3.1,0,5.5,1,7.3,3c1.7,2,2.6,5.1,2.6,9.4v18.8
			h-8.3v-18.7c0-2.2-0.4-3.7-1.1-4.7c-0.8-0.9-1.9-1.4-3.4-1.4c-1.2,0-2.3,0.2-3.2,0.7c-0.9,0.5-1.7,1.1-2.3,1.9v22.2h-8.3v-30.6
			H140.5z"/>
		<path class="st2" d="M164.4,164.8c0-4.8,1-8.7,3.1-11.7c2.1-3,5-4.4,8.8-4.4c1.5,0,2.9,0.3,4.1,1s2.3,1.6,3.2,2.8v-16.8h8.3v44.2
			h-7.1l-0.7-3.8c-1,1.4-2.1,2.5-3.4,3.2c-1.3,0.7-2.8,1.1-4.5,1.1c-3.8,0-6.7-1.4-8.8-4.1c-2.1-2.8-3.1-6.4-3.1-10.9V164.8z
			 M172.6,165.3c0,2.7,0.5,4.8,1.4,6.3c0.9,1.5,2.4,2.3,4.4,2.3c1.2,0,2.2-0.2,3.1-0.7c0.9-0.5,1.6-1.2,2.2-2.1v-13.1
			c-0.6-1-1.3-1.7-2.2-2.3c-0.9-0.5-1.9-0.8-3.1-0.8c-2,0-3.5,0.9-4.4,2.7c-0.9,1.8-1.4,4.1-1.4,7V165.3z"/>
		<path class="st2" d="M207.1,141.8h-8.3v-6.2h8.3V141.8z M207.1,179.8h-8.3v-30.6h8.3V179.8z"/>
		<path class="st2" d="M221.4,149.2l0.4,4.4c1-1.6,2.3-2.8,3.8-3.7s3.2-1.3,5-1.3c3.1,0,5.5,1,7.3,3c1.7,2,2.6,5.1,2.6,9.4v18.8
			h-8.3v-18.7c0-2.2-0.4-3.7-1.1-4.7c-0.8-0.9-1.9-1.4-3.4-1.4c-1.2,0-2.3,0.2-3.2,0.7c-0.9,0.5-1.7,1.1-2.3,1.9v22.2h-8.3v-30.6
			H221.4z"/>
		<path class="st2" d="M245.4,164.8c0-4.8,1-8.7,3.1-11.7s5-4.4,8.8-4.4c1.7,0,3.2,0.4,4.5,1.2s2.4,1.9,3.3,3.3l0.7-3.9h7.1v30.5
			c0,4-1.3,7.1-3.9,9.2c-2.6,2.2-6.2,3.3-10.9,3.3c-1.5,0-3.2-0.2-4.9-0.6c-1.7-0.4-3.3-1-4.8-1.7l1.4-6.2c1.3,0.6,2.6,1.1,3.9,1.4
			c1.4,0.3,2.8,0.5,4.4,0.5c2.3,0,3.9-0.5,5-1.4c1.1-0.9,1.6-2.4,1.6-4.4v-2.8c-0.9,1.2-2,2-3.2,2.6s-2.6,0.9-4.2,0.9
			c-3.8,0-6.7-1.4-8.8-4.1s-3.1-6.4-3.1-10.9V164.8z M253.7,165.3c0,2.7,0.4,4.8,1.3,6.3c0.9,1.5,2.4,2.3,4.4,2.3
			c1.3,0,2.3-0.2,3.2-0.7c0.9-0.5,1.6-1.1,2.1-2V158c-0.5-0.9-1.2-1.7-2.1-2.2c-0.9-0.5-1.9-0.8-3.2-0.8c-2,0-3.5,0.9-4.4,2.7
			s-1.4,4.1-1.4,7V165.3z"/>
		<g>
			<g>
				<path class="st1" d="M162.6,144.3c0.4-3,0.7-6,0.9-9c0.1-1.5,0.2-3,0.2-4.5c0-1.5-0.1-3-0.2-4.5c-0.6-6-2.4-11.8-5.6-16.9
					c-1.6-2.5-3.4-4.9-5.6-7c-2.2-2-4.7-3.7-7.3-5.1c-0.7-0.3-1.3-0.6-2-0.9c-0.7-0.3-1.5-0.8-2-1.4c-1-1.3-1.3-3.2-0.6-4.7
					c0.3-0.8,0.9-1.4,1.6-1.9c0.6-0.4,1.2-0.9,1.8-1.4c1.1-1,2.2-2,3.2-3.1c4-4.4,6.7-10,7.9-15.8c0.6-2.9,0.9-5.9,0.8-8.9
					c0-3-0.3-6-0.9-8.9c-1.1-5.8-3.5-11.5-7.2-16.1c-3.7-4.7-8.6-8.2-13.9-10.9c-5.3-2.6-11.1-4.4-17-5.5c-2.9-0.5-5.9-1-8.9-1.2
					c-3-0.3-6-0.4-9-0.5l-36.2,0.1l-9.1,0l-4.5,0c-0.4,0-0.8,0-1.1,0c-0.3,0-0.6,0.1-0.8,0.2c-0.5,0.2-1,0.5-1.4,1
					c-0.3,0.4-0.6,1-0.7,1.5c0,0.1,0,0.3,0,0.4l0,0.6l0,1.1l0,4.5l0,9.1l0.1,36.2l0.3,72.4l0,18.1l0,9.1l0,2.3l0,1.1
					c0,0.2,0,0.3,0,0.4c0,0.1,0,0.2,0.1,0.3c0.2,0.9,1,1.7,1.8,1.9c0.1,0,0.2,0,0.3,0.1c0.1,0,0.2,0,0.4,0l1.1,0l2.3,0l4.5,0l9.1,0
					l4.5,0l1.1,0l0.6,0l0.3,0l0.2,0c0.5,0,0.9-0.2,1.3-0.5c0.4-0.3,0.7-0.7,0.9-1.1c0.1-0.2,0.1-0.5,0.2-0.7c0-0.1,0-0.2,0-0.4
					l0-0.6l0-4.5l0.2-18.1l0.1-9.1l0.1-9.1l0.1-18.1l0-4.6c0.1-1.9,1.3-3.8,3.1-4.5c0.4-0.2,0.9-0.3,1.4-0.4c0.2,0,0.5,0,0.7,0
					l0.6,0l2.3,0l4.5,0l18.1,0.2c3.1,0,6.1,0.3,9.2,1c3,0.7,6,1.9,8.5,3.7c2.6,1.8,4.6,4.2,6.1,7c1.5,2.7,2.3,5.8,2.6,8.8
					c0.2,1.5,0.3,3,0.3,4.6c0,1.6-0.3,3.1-0.5,4.5c-0.6,3-1.2,5.9-2,8.8l-0.3-0.1c0.7-2.9,1.3-5.9,1.8-8.9c0.2-1.5,0.5-3,0.4-4.4
					c0-1.5-0.2-3-0.4-4.5c-0.4-2.9-1.3-5.8-2.8-8.4c-1.4-2.6-3.5-4.8-5.9-6.4c-2.4-1.6-5.2-2.7-8.1-3.3c-2.9-0.6-5.9-0.8-8.8-0.8
					l-18.1,0.2l-4.5,0l-2.3,0l-0.6,0c-0.2,0-0.3,0-0.4,0c-0.3,0-0.5,0.1-0.8,0.2c-1,0.4-1.7,1.5-1.7,2.6l0,4.5l0.1,18.1l0.1,9.1
					l0,9.1l0,18.1l0,4.5l0,0.6c0,0.2,0,0.5,0,0.7c-0.1,0.5-0.2,1-0.4,1.5c-0.4,1-1,1.8-1.9,2.4c-0.8,0.6-1.9,1-2.9,1.1l-0.4,0
					l-0.3,0l-0.6,0l-1.1,0l-4.5,0l-9.1,0l-4.5,0l-2.3,0l-1.1,0c-0.2,0-0.4,0-0.7,0c-0.3,0-0.5-0.1-0.8-0.1c-2.1-0.5-3.7-2.2-4.2-4.2
					c-0.1-0.3-0.1-0.5-0.1-0.8c0-0.2,0-0.5,0-0.7l0-1.1l0-2.3l0-9.1l0-18.1l0.3-72.4L43,34.7l0-9.1l0-4.5l0-1.1l0-0.6
					c0-0.2,0-0.5,0.1-0.7c0.1-0.9,0.5-1.8,1.1-2.6c0.6-0.7,1.4-1.3,2.3-1.6c0.5-0.1,0.9-0.2,1.4-0.3c0.5,0,0.8,0,1.2,0l4.5,0l9.1,0
					l36.2,0.1c3,0.1,6.1,0.2,9.1,0.5c3,0.3,6,0.7,9,1.3c6,1.1,11.9,3,17.3,5.7c5.4,2.8,10.5,6.5,14.3,11.4
					c3.8,4.8,6.2,10.7,7.3,16.7c0.6,3,0.8,6.1,0.8,9.1c0.1,3.1-0.2,6.1-0.9,9.1c-1.3,6-4.1,11.6-8.3,16.1c-1,1.1-2.2,2.2-3.3,3.1
					c-0.6,0.5-1.2,0.9-1.8,1.4c-0.6,0.4-1,0.9-1.3,1.5c-0.6,1.2-0.4,2.8,0.4,3.9c0.4,0.5,1,0.9,1.6,1.2c0.7,0.3,1.4,0.6,2.1,1
					c2.7,1.4,5.2,3.1,7.5,5.2c2.2,2.1,4.1,4.5,5.7,7.1c3.2,5.2,5,11.2,5.5,17.2c0.2,1.5,0.2,3,0.2,4.5c0,1.5-0.1,3-0.3,4.5
					c-0.3,3-0.6,6-1,9L162.6,144.3z"/>
				<path class="st1" d="M76,44.6c0-1.7,1.1-3.4,2.8-4c0.8-0.3,1.7-0.2,2.5-0.3l2.5,0l10-0.2c6.6-0.3,13.6-0.1,20,2.7
					c3.1,1.4,6,3.6,7.9,6.6c1.9,3,2.9,6.4,3.3,9.8c0.3,3.4,0.3,6.9-0.7,10.3c-0.9,3.4-2.9,6.6-5.6,8.9c-2.7,2.3-6,3.9-9.3,4.9
					c-3.4,1-6.8,1.4-10.2,1.5c-3.4,0.1-6.7,0.1-10.1,0.1l-5,0l-2.5,0l-1.3,0c-0.5,0-1.1-0.1-1.7-0.2c-2.2-0.7-3.8-2.8-3.9-5.1
					c0-0.3,0-0.5,0-0.7l0-0.6l0-1.3l0.1-2.5l0.4-10l0.4-10C75.9,51.3,76,47.9,76,44.6z M76.3,44.6c0,3.3,0.1,6.7,0.2,10l0.4,10
					l0.4,10l0.2,4.9c0.1,1.1,0.9,2.1,1.9,2.3c0.3,0.1,0.5,0.1,0.8,0.1l1.3,0l2.5,0l5,0l10,0.1c3.3-0.1,6.5-0.4,9.6-1.2
					c3.1-0.8,6-2.1,8.5-4.1c2.4-2,4.2-4.7,5.1-7.7c0.9-3,1.1-6.3,0.9-9.5c-0.3-3.2-1.1-6.4-2.8-9.1c-1.7-2.7-4.2-4.8-7.1-6.2
					c-2.9-1.4-6.1-2.3-9.4-2.8c-3.3-0.5-6.6-0.6-9.9-0.7l-10-0.2l-2.5,0c-0.8,0-1.7-0.1-2.4,0.2C77.3,41.4,76.3,43,76.3,44.6z"/>
			</g>
		</g>
		<g>
			<path class="st1" d="M280.3,191.1c5.4,0.6,10.8,1.3,16.2,2.5c1.3,0.3,2.7,0.6,4,1.1c0.7,0.2,1.3,0.5,1.9,0.7
				c0.6,0.3,1.3,0.6,1.8,1.2c0.2,0.3,0.5,0.7,0.4,1.1c-0.1,0.4-0.3,0.8-0.6,1c-0.6,0.5-1.2,0.8-1.8,1.1c-1.3,0.6-2.6,1-3.9,1.3
				c-5.3,1.4-10.7,2.1-16.1,2.9c-5.4,0.7-10.8,1.3-16.3,1.7c-21.7,1.9-43.6,2.9-65.4,3.5c-21.8,0.6-43.6,0.7-65.5,0.4
				c-21.8-0.3-43.6-0.9-65.4-2.4c-10.9-0.7-21.8-1.6-32.7-3.2c-2.7-0.4-5.4-0.9-8.1-1.5c-1.4-0.3-2.7-0.6-4.1-1.1
				c-0.7-0.2-1.4-0.5-2.1-0.8c-0.7-0.3-1.4-0.6-2.2-1.5c-0.4-0.4-0.8-1.2-0.7-2c0-0.4,0.2-0.8,0.4-1.1c0.2-0.2,0.4-0.5,0.6-0.6
				c0.7-0.7,1.4-1,2.1-1.3c1.4-0.6,2.7-1,4.1-1.4c2.7-0.7,5.4-1.2,8.1-1.7c10.9-1.8,21.7-2.7,32.6-3.6c10.9-0.8,21.8-1.3,32.7-1.7
				c21.8-0.7,43.7-1,65.5-0.7c10.9,0.1,21.8,0.4,32.7,0.7c10.9,0.4,21.8,0.9,32.7,1.6l0,0.3c-10.9-0.3-21.8-0.5-32.7-0.5
				c-10.9-0.1-21.8-0.1-32.7,0c-21.8,0.2-43.6,0.6-65.4,1.6c-10.9,0.4-21.8,1-32.6,1.8c-10.8,0.8-21.7,1.7-32.4,3.4
				c-2.7,0.4-5.3,0.9-7.9,1.6c-1.3,0.3-2.5,0.7-3.7,1.2c-0.5,0.2-1.1,0.5-1.3,0.8c-0.1,0.1-0.1,0.1-0.1,0.1c0,0,0,0,0-0.1
				c0-0.2-0.1-0.3,0-0.2c0.1,0.2,0.7,0.5,1.2,0.8c0.5,0.3,1.1,0.5,1.7,0.7c1.2,0.4,2.5,0.8,3.8,1.1c2.6,0.6,5.3,1.1,7.9,1.5
				c10.7,1.7,21.6,2.6,32.4,3.4c21.7,1.6,43.5,2.4,65.3,2.8c21.8,0.4,43.6,0.4,65.4,0c21.8-0.4,43.6-1.2,65.3-2.9
				c5.4-0.4,10.9-0.9,16.3-1.6c5.4-0.7,10.8-1.4,16.1-2.7c1.3-0.3,2.6-0.7,3.8-1.2c0.6-0.3,1.2-0.6,1.7-1c0.5-0.4,0.6-1,0.2-1.4
				c-0.4-0.5-1-0.8-1.6-1.1c-0.6-0.3-1.2-0.5-1.9-0.7c-1.3-0.4-2.6-0.8-3.9-1.1c-5.3-1.2-10.7-2-16.1-2.7L280.3,191.1z"/>
		</g>
		<g>
			<path class="st1" d="M269.6,193.8c4.9,0.4,9.8,0.8,14.7,1.4c1.2,0.2,2.4,0.4,3.7,0.6c0.6,0.1,1.2,0.3,1.8,0.5
				c0.6,0.2,1.2,0.3,1.8,0.9c0.2,0.2,0.2,0.5,0,0.7c-0.1,0.2-0.3,0.3-0.4,0.4c-0.3,0.2-0.6,0.3-0.9,0.4c-0.6,0.2-1.2,0.4-1.8,0.5
				c-1.2,0.3-2.4,0.5-3.7,0.7c-4.9,0.8-9.8,1.2-14.7,1.6c-4.9,0.4-9.8,0.7-14.8,1c-19.7,1.1-39.4,1.7-59.1,2.1
				c-19.7,0.3-39.4,0.4-59.1,0.3c-19.7-0.1-39.4-0.5-59.2-1.3c-9.9-0.4-19.7-0.9-29.6-1.8c-2.5-0.2-4.9-0.5-7.4-0.8
				c-1.2-0.2-2.5-0.4-3.7-0.6c-0.6-0.1-1.3-0.3-1.9-0.5c-0.3-0.1-0.7-0.2-1-0.4c-0.4-0.2-0.7-0.3-1.2-0.8c-0.2-0.2-0.3-0.3-0.4-0.6
				c-0.1-0.3-0.2-0.7-0.1-1.1c0-0.2,0.1-0.4,0.2-0.5c0.1-0.1,0.1-0.2,0.2-0.3c0.2-0.2,0.3-0.3,0.4-0.4c0.5-0.4,0.8-0.5,1.2-0.7
				c0.7-0.3,1.3-0.4,2-0.6c1.3-0.3,2.5-0.5,3.7-0.7c2.5-0.4,4.9-0.7,7.4-1c19.7-1.9,39.4-2.5,59.2-3c9.9-0.2,19.7-0.3,29.6-0.3
				l14.8,0c4.9,0,9.9,0,14.8,0.2l29.6,0.8l29.6,0.9l0,0.3l-29.6,0.1l-29.6,0c-19.7,0.1-39.4,0.4-59.1,1.1
				c-9.8,0.3-19.7,0.6-29.5,1.1c-9.8,0.5-19.7,0.9-29.4,1.9c-2.4,0.2-4.9,0.5-7.3,0.9c-1.2,0.2-2.4,0.4-3.5,0.6
				c-0.6,0.1-1.1,0.3-1.6,0.5l-0.3,0.1c0,0-0.2,0.1-0.1,0.1c0,0,0,0,0.1-0.1c0,0,0-0.1,0.1-0.1c0,0,0.1-0.2,0.1-0.3
				c0-0.2,0-0.4-0.1-0.6c-0.1-0.1-0.1-0.2-0.2-0.2c-0.1-0.1,0.1,0.1,0.3,0.2c0.2,0.1,0.5,0.2,0.7,0.3c0.5,0.2,1.1,0.3,1.7,0.4
				c1.2,0.3,2.3,0.5,3.5,0.6c2.4,0.4,4.8,0.6,7.3,0.9c9.8,1,19.6,1.6,29.4,2.1c19.7,0.9,39.4,1.4,59.1,1.7
				c19.7,0.3,39.4,0.3,59.1,0.1c19.7-0.2,39.4-0.6,59.1-1.5c4.9-0.2,9.8-0.5,14.7-0.9c4.9-0.4,9.8-0.8,14.7-1.5
				c1.2-0.2,2.4-0.4,3.6-0.7c0.6-0.1,1.2-0.3,1.7-0.5c0.3-0.1,0.5-0.2,0.8-0.4c0.1-0.1,0.2-0.2,0.2-0.2c0-0.1,0.1-0.1,0-0.2
				c-0.3-0.3-0.9-0.6-1.5-0.7c-0.6-0.2-1.2-0.3-1.8-0.5c-1.2-0.3-2.4-0.5-3.6-0.7c-4.9-0.7-9.8-1.2-14.7-1.6L269.6,193.8z"/>
		</g>
	</g>
</g>
<g id="Layer_3" class="st3">
	<g class="st4">
		<path class="st2" d="M154.3,153.8l7.6-14.5h9.5l-12,20.2l12.7,20.6h-9.8l-7.8-14.7l-7.8,14.7h-9.5l12.3-20.6l-12-20.2h9.4
			L154.3,153.8z"/>
		<path class="st2" d="M188.2,183.6h-7.9l14.9-44.3h7.9L188.2,183.6z"/>
		<path class="st2" d="M244.6,139.3V166c0,4.6-1.5,8.2-4.5,10.8c-3,2.6-7,3.9-11.8,3.9c-4.8,0-8.7-1.3-11.7-3.9
			c-3-2.6-4.5-6.2-4.5-10.8v-26.7h8.2V166c0,2.7,0.7,4.8,2.2,6.3c1.4,1.4,3.4,2.2,5.9,2.2c2.5,0,4.5-0.7,6-2.2
			c1.5-1.4,2.2-3.5,2.2-6.3v-26.7H244.6z"/>
		<path class="st2" d="M260.3,180.1h-8.1v-40.8h8.1V180.1z"/>
		<g>
			<path class="st1" d="M134,155.3c-2.1,0.4-4.3,0.6-6.4,0.9c-2.1,0.2-4.3,0.4-6.4,0.5c-4.3,0.1-8.7-0.4-12.8-1.8
				c-4.1-1.3-8-3.6-11-6.7c-3.1-3.1-5.4-6.9-6.7-11.1c-1.4-4.1-1.9-8.5-2-12.8l-0.1-12.9l-0.1-25.8l-0.2-51.5l0-6.4l0-3.2l0-1.6
				c0-0.3,0-0.6,0-0.8c0-0.2,0-0.4-0.1-0.6c-0.2-0.7-0.7-1.4-1.4-1.7c-0.3-0.2-0.7-0.3-1.1-0.3l-1.6,0l-6.4,0l-12.9,0.1l-3.2,0
				l-0.4,0c-0.1,0-0.3,0-0.3,0c-0.2,0-0.4,0-0.5,0.1c-0.3,0.1-0.7,0.3-1,0.5c-0.6,0.5-0.9,1.2-0.9,2l0,3.2l0.5,102.9
				c0.5,8.4,2.5,16.7,6.6,24c4.1,7.3,10.2,13.4,17.3,17.9c7.1,4.6,15.2,7.5,23.6,9c4.2,0.8,8.4,1.2,12.7,1.4c2.1,0.1,4.3,0.1,6.4,0
				c2.1-0.1,4.3-0.2,6.4-0.3l0,0.3c-8.5,1.1-17.2,1.2-25.8,0c-8.6-1.3-17-4-24.5-8.5c-7.5-4.5-14-10.8-18.5-18.4
				c-4.5-7.6-6.7-16.4-7.3-25.1c-0.3-4.4-0.2-8.7-0.2-13l0-12.9L55.5,77l0.3-51.5l0-3.2c0-1.4,0.6-2.8,1.7-3.7
				c0.5-0.5,1.2-0.8,1.9-1c0.3-0.1,0.7-0.2,1-0.2c0.2,0,0.3,0,0.5,0l0.4,0l3.2,0l12.9,0.1l6.4,0l1.6,0c0.7,0,1.4,0.2,2,0.5
				c1.2,0.6,2.2,1.8,2.5,3.1c0.1,0.3,0.1,0.7,0.1,1c0,0.3,0,0.6,0,0.8l0,1.6l0,3.2l0,6.4l-0.2,51.5l-0.2,25.8
				c0.2,8.6-0.9,17.3,1.8,25.4c1.3,4,3.4,7.8,6.4,10.8c3,3,6.7,5.3,10.7,6.7c4,1.4,8.3,1.9,12.6,1.9c2.1,0,4.3-0.2,6.4-0.4
				c2.1-0.2,4.3-0.4,6.4-0.8L134,155.3z"/>
		</g>
		<g>
			<path class="st1" d="M184.6,134.1L184,68.7L183.8,36l-0.1-8.2l0-4.1l0-1l0-0.5c0-0.2,0-0.3,0-0.4c-0.1-0.5-0.3-0.9-0.6-1.3
				c-0.3-0.4-0.7-0.7-1.2-0.8c-0.2-0.1-0.5-0.1-0.7-0.1c-0.1,0-0.3,0-0.4,0l-0.5,0l-4.1,0l-8.2,0.1l-8.2,0.1l-2,0l-1,0l-0.5,0
				c-0.1,0-0.2,0-0.3,0c-0.9,0.1-1.6,0.8-1.8,1.6c-0.1,0.2-0.1,0.4-0.1,0.6l0,1l0,2l0,4.1l0.1,8.2l0.1,16.3l-0.1,16.3
				c-0.2,10.9-0.2,21.8-0.5,32.7l-0.4,16.3c-0.1,2.7-0.2,5.5-0.3,8.2c-0.1,2.7-0.3,5.4-0.6,8.2l-0.3,0c0.1-5.4,0-10.9-0.2-16.3
				l-0.4-16.3c-0.2-10.9-0.3-21.8-0.5-32.7l-0.1-16.3l0.1-16.3l0.1-8.2l0-4.1l0-2l0-1.1c0-0.5,0.1-0.9,0.2-1.4
				c0.5-1.8,2.2-3.2,4-3.4c0.2,0,0.5-0.1,0.7-0.1l0.5,0l1,0l2,0l8.2,0.1l8.2,0.1l4.1,0l0.5,0c0.2,0,0.3,0,0.6,0
				c0.4,0,0.9,0.1,1.3,0.3c0.8,0.3,1.6,0.8,2.1,1.5c0.5,0.7,0.9,1.5,1,2.4c0,0.2,0,0.5,0,0.6l0,0.5l0,1l0,4.1l-0.1,8.2l-0.2,32.7
				l-0.6,65.4L184.6,134.1z"/>
		</g>
		<g>
			<path class="st1" d="M199.4,184.6c20.2,0.4,40.4,1.1,60.6,2.8c5,0.4,10.1,0.9,15.1,1.6c5,0.7,10,1.4,15,2.6
				c1.2,0.3,2.5,0.7,3.7,1.2c0.6,0.2,1.2,0.5,1.8,0.9c0.6,0.4,1.2,0.7,1.6,1.6c0.2,0.4,0.1,1-0.1,1.4c-0.2,0.4-0.5,0.7-0.8,0.9
				c-0.6,0.5-1.2,0.8-1.8,1.1c-1.2,0.6-2.4,0.9-3.7,1.3c-4.9,1.4-10,2.2-15,2.9c-10,1.4-20.1,2.3-30.2,3
				c-10.1,0.7-20.2,1.2-30.3,1.6c-20.2,0.8-40.5,1-60.7,0.9c-20.2-0.1-40.5-0.6-60.7-1.9c-10.1-0.7-20.2-1.4-30.3-2.8
				c-5-0.7-10.1-1.5-15.1-2.8c-1.3-0.3-2.5-0.7-3.8-1.2c-0.6-0.3-1.3-0.6-1.9-1c-0.3-0.2-0.7-0.5-1-0.8c-0.2-0.2-0.3-0.4-0.5-0.7
				c-0.1-0.3-0.3-0.6-0.3-1c-0.1-0.8,0.2-1.5,0.5-2c0.3-0.4,0.7-0.7,1-1c0.7-0.5,1.3-0.8,2-1.1c1.3-0.5,2.5-0.9,3.8-1.3
				c5-1.3,10.1-2,15.1-2.7c5-0.6,10.1-1.1,15.1-1.6c10.1-0.8,20.2-1.5,30.3-1.8c10.1-0.4,20.2-0.6,30.3-0.7l30.3,0.2v0.3l-30.3,0.9
				c-10.1,0.3-20.2,0.8-30.3,1.4c-10.1,0.6-20.2,1.3-30.2,2.3c-5,0.5-10,1.1-15,1.8c-5,0.7-10,1.5-14.7,2.8
				c-1.2,0.3-2.3,0.7-3.4,1.1c-0.5,0.2-1,0.5-1.4,0.7c-0.2,0.1-0.3,0.3-0.4,0.3c0,0.1,0,0,0-0.2c0-0.1,0-0.1,0-0.1c0,0,0,0,0.1,0.1
				c0.1,0.1,0.3,0.2,0.5,0.4c0.4,0.3,0.9,0.5,1.4,0.7c1.1,0.4,2.2,0.8,3.4,1.1c4.8,1.2,9.7,2,14.7,2.7c10,1.3,20,2.2,30.1,2.9
				c20.1,1.4,40.3,2.1,60.5,2.4c20.2,0.3,40.4,0.2,60.6-0.5c10.1-0.3,20.2-0.7,30.3-1.4c10.1-0.6,20.1-1.4,30.1-2.7
				c5-0.7,10-1.4,14.8-2.7c1.2-0.3,2.4-0.7,3.5-1.2c0.5-0.2,1.1-0.5,1.5-0.9c0.2-0.2,0.4-0.3,0.5-0.5c0.1-0.2,0.1-0.3,0-0.4
				c-0.1-0.3-0.6-0.7-1.1-1c-0.5-0.3-1.1-0.5-1.6-0.8c-1.1-0.5-2.3-0.8-3.5-1.1c-4.8-1.3-9.8-2-14.8-2.7c-5-0.7-10-1.2-15-1.7
				c-20.1-1.9-40.3-2.8-60.5-3.4L199.4,184.6z"/>
		</g>
		<path class="st2" d="M199.4,184.7"/>
		<path class="st2" d="M169.6,184.5"/>
		<g>
			<path class="st1" d="M196,191.1c17.7,0.1,35.5,0.4,53.2,1.1c8.9,0.4,17.7,0.8,26.6,1.8c1.1,0.1,2.2,0.3,3.3,0.5
				c0.6,0.1,1.1,0.2,1.7,0.4c0.3,0.1,0.6,0.2,0.9,0.3c0.1,0.1,0.3,0.1,0.5,0.2c0.1,0.1,0.2,0.1,0.3,0.2c0.1,0.1,0.2,0.2,0.3,0.3
				c0.1,0.1,0.2,0.4,0.1,0.6c0,0.1-0.1,0.2-0.1,0.3c0,0.1-0.1,0.1-0.1,0.2c-0.2,0.2-0.4,0.3-0.5,0.4c-0.3,0.2-0.6,0.3-0.9,0.4
				c-0.6,0.2-1.1,0.3-1.7,0.4c-1.1,0.2-2.2,0.4-3.3,0.6c-4.4,0.6-8.9,1-13.3,1.3c-17.7,1.2-35.5,1.8-53.2,2.2
				c-17.7,0.4-35.5,0.5-53.2,0.5c-17.8,0-35.5-0.2-53.3-0.7c-8.9-0.3-17.8-0.6-26.6-1.2c-4.4-0.3-8.9-0.7-13.3-1.3
				c-1.1-0.2-2.2-0.3-3.4-0.5c-0.6-0.1-1.1-0.2-1.8-0.4c-0.3-0.1-0.6-0.2-1-0.3c-0.1,0-0.2-0.1-0.3-0.1c-0.1-0.1-0.2-0.1-0.3-0.2
				l-0.2-0.1c-0.1,0-0.1-0.1-0.2-0.2c-0.1-0.1-0.2-0.2-0.2-0.3c-0.1-0.1-0.2-0.4-0.2-0.6c0-0.2-0.1-0.4,0-0.7c0-0.2,0.1-0.5,0.2-0.6
				c0.1-0.1,0.2-0.3,0.3-0.4c0.1-0.1,0.1-0.1,0.2-0.2c0.3-0.2,0.5-0.3,0.7-0.4c0.4-0.2,0.7-0.3,1-0.4c0.6-0.2,1.2-0.3,1.8-0.4
				c1.1-0.2,2.3-0.4,3.4-0.5c8.9-1,17.8-1.4,26.7-1.8c8.9-0.3,17.8-0.6,26.6-0.7c8.9-0.1,17.8-0.2,26.6-0.1
				c8.9,0.1,17.7,0.2,26.6,0.4v0.3c-17.7,0.5-35.5,0.8-53.2,1.5c-8.9,0.4-17.7,0.7-26.6,1.2c-8.8,0.5-17.7,1-26.4,2.2
				c-1.1,0.1-2.2,0.3-3.2,0.5c-0.5,0.1-1,0.2-1.5,0.4c-0.2,0.1-0.4,0.1-0.6,0.2c-0.1,0-0.1,0.1,0,0c0,0,0,0,0.1-0.1
				c0.1,0,0.1-0.1,0.1-0.2c0,0,0.1-0.2,0.1-0.4c0-0.2,0-0.3,0-0.5c0-0.1-0.1-0.3-0.1-0.4c0-0.1-0.1-0.1-0.1-0.2
				c-0.1-0.1-0.1-0.1-0.1-0.1l0,0c0,0,0,0,0,0c0,0,0,0,0.1,0c0.2,0.1,0.4,0.1,0.6,0.2c0.5,0.1,1,0.2,1.5,0.3c1,0.2,2.1,0.4,3.2,0.5
				c4.3,0.6,8.7,0.9,13.2,1.2c8.8,0.6,17.7,1,26.5,1.3c17.7,0.7,35.4,1.1,53.2,1.3c17.7,0.2,35.5,0.2,53.2-0.1
				c17.7-0.3,35.5-0.6,53.2-1.7c4.4-0.3,8.8-0.6,13.2-1.2c1.1-0.1,2.2-0.3,3.2-0.5c0.5-0.1,1.1-0.2,1.5-0.4c0.2-0.1,0.5-0.2,0.7-0.3
				c0.1,0,0.2-0.1,0.2-0.1c0,0,0,0,0,0c0,0,0,0.1,0,0.1c0,0,0,0.1,0,0.1c0,0.1,0,0.1,0,0.1c0.1,0.1-0.2-0.1-0.4-0.2
				c-0.2-0.1-0.5-0.2-0.7-0.2c-0.5-0.1-1-0.3-1.6-0.4c-1.1-0.2-2.2-0.4-3.2-0.5c-8.8-1.1-17.6-1.6-26.5-2.1
				c-17.7-0.9-35.4-1.4-53.2-1.7L196,191.1z"/>
		</g>
	</g>
</g>
</svg>
