<svg xmlns="http://www.w3.org/2000/svg" viewBox="0 0 32.61 29.42"><defs><style>.cls-1{opacity:0.72;}.cls-2{fill:#fff;}</style></defs><title>Instagram</title><g id="Layer_2" data-name="Layer 2"><g id="Layer_4" data-name="Layer 4"><g class="cls-1"><rect class="cls-2" width="32.61" height="29.42" rx="11.67" ry="11.67"/><path d="M16,10.78a4.15,4.15,0,1,0,4.15,4.15A4.14,4.14,0,0,0,16,10.78Zm0,6.86a2.71,2.71,0,1,1,2.71-2.71A2.71,2.71,0,0,1,16,17.64Z"/><circle cx="20.19" cy="10.17" r="1.45"/><path d="M20,6.1H12a4.65,4.65,0,0,0-4.64,4.63v8A4.66,4.66,0,0,0,12,23.33h8a4.66,4.66,0,0,0,4.64-4.64v-8A4.65,4.65,0,0,0,20,6.1Zm3.76,11.79a4.57,4.57,0,0,1-4.56,4.56H12.79a4.57,4.57,0,0,1-4.56-4.56v-6a4.57,4.57,0,0,1,4.56-4.56h6.36a4.57,4.57,0,0,1,4.56,4.56Z"/></g></g></g></svg>