
<svg version="1.1" id="Block" xmlns="http://www.w3.org/2000/svg" xmlns:xlink="http://www.w3.org/1999/xlink" x="0px" y="0px"
	 viewBox="0 0 325.223 232.776" style="enable-background:new 0 0 325.223 232.776;" xml:space="preserve">
<style type="text/css">
	.st0{display:none;}
	.st1{display:inline;opacity:0.9;}
	.st2{fill:#F9F9F9;}
	.st3{fill:none;stroke:#F9F9F9;stroke-width:3;stroke-miterlimit:10;}
	.st4{opacity:0.9;}

	<defs>

	<style>
	.st0{
			stroke-dasharray:2000;
			stroke-dashoffset:0;
			-webkit-animation: dash 4s linear forwards;
			-o-animation: dash 4s linear forwards;
			-moz-animation: dash 4s linear forwards;
			-animation: dash 4s linear forwards;
	}

	#Block:hover .st0{
				fill:#0073A5;
				transition: .6s;

	}

	.st1{
			stroke-dasharray:2000;
			stroke-dashoffset:0;
			-webkit-animation: dash 6s linear forwards;
			-o-animation: dash 6s linear forwards;
			-moz-animation: dash 4s linear forwards;
			-animation: dash 6s linear forwards;
	}

	#Block:hover .st1{
				fill:#F84E07;
				transition: .8s;
				stroke:#F84E07;
	}

	.st2{
			stroke-dasharray:2000;
			stroke-dashoffset:0;
			-webkit-animation: dash 6s linear forwards;
			-o-animation: dash 6s linear forwards;
			-moz-animation: dash 6s linear forwards;
			-animation: dash 6s linear forwards;
	}

	#Block:hover .st2{
				fill:#F84E07;
				transition: .8s;
				stroke:#F84E07;
	}


	#Block:hover .st3{
				fill:#F84E07;
				transition: .8s;
				stroke-width:.1;

				stroke-dasharray:2000;
			stroke-dashoffset:0;
			-webkit-animation: dash 6s linear forwards;
			-o-animation: dash 6s linear forwards;
			-moz-animation: dash 6s linear forwards;
			-animation: dash 6s linear forwards;
	}

	@-webkit-keyframes dash{
		from{

				stroke-dashoffset:2000;
		}
		to{
			stroke-dashoffset: 0;
		}	

	}

		</style>

</defs>





</style>
<g id="Layer_1" class="st0">
	<g class="st1">
		<g>
			<path class="st2" d="M247.866,188.69c9.718,0.565,19.434,1.255,29.113,2.394c4.834,0.6,9.673,1.236,14.435,2.423
				c1.187,0.316,2.372,0.654,3.523,1.169c0.572,0.267,1.149,0.556,1.654,1.079c0.252,0.241,0.475,0.67,0.434,1.125
				c-0.045,0.47-0.323,0.79-0.571,1.026c-1.059,0.907-2.251,1.271-3.42,1.679c-1.177,0.381-2.367,0.684-3.562,0.958
				c-4.782,1.07-9.617,1.738-14.455,2.343c-4.84,0.591-9.69,1.066-14.544,1.486c-9.708,0.833-19.432,1.433-29.16,1.915
				c-19.458,0.927-38.935,1.371-58.413,1.498c-19.478,0.116-38.96-0.088-58.436-0.735c-9.738-0.318-19.475-0.745-29.207-1.364
				c-9.732-0.639-19.46-1.389-29.177-2.753c-2.429-0.354-4.856-0.755-7.288-1.27c-1.216-0.26-2.433-0.553-3.658-0.917
				c-0.614-0.187-1.228-0.386-1.854-0.639c-0.624-0.248-1.257-0.533-1.943-1.011c-0.335-0.242-0.722-0.556-1.068-1.126
				c-0.085-0.161-0.162-0.327-0.226-0.497c-0.054-0.204-0.09-0.419-0.108-0.631c-0.017-0.215,0.046-0.532,0.125-0.785
				c0.089-0.3,0.19-0.399,0.302-0.572c0.249-0.361,0.438-0.48,0.645-0.655c0.224-0.189,0.37-0.241,0.562-0.364
				c0.362-0.207,0.684-0.341,1.013-0.476c1.288-0.498,2.507-0.799,3.735-1.085c2.447-0.547,4.875-0.946,7.309-1.285
				c9.725-1.323,19.446-2.073,29.174-2.758c19.462-1.193,38.93-1.938,58.405-2.314c9.738-0.172,19.475-0.28,29.213-0.307
				c9.738,0.027,19.475,0.067,29.21,0.296v0.3c-9.732,0.231-19.462,0.44-29.188,0.773c-9.727,0.28-19.451,0.615-29.172,1.029
				c-19.439,0.818-38.878,1.715-58.257,3.216c-9.684,0.719-19.384,1.51-28.945,2.851c-2.382,0.352-4.766,0.714-7.071,1.221
				c-1.142,0.255-2.292,0.545-3.276,0.921c-0.233,0.093-0.475,0.197-0.64,0.292c-0.062,0.044-0.207,0.104-0.206,0.126
				c-0.026,0.02-0.094,0.073-0.002-0.02c0.03-0.047,0.005-0.04,0.082-0.181c0.055-0.105,0.043-0.275,0.042-0.341
				c0.007-0.062-0.006-0.127-0.036-0.181c-0.001-0.032-0.01-0.062-0.03-0.085c-0.03-0.052,0.039,0.058,0.2,0.164
				c0.31,0.221,0.784,0.465,1.29,0.662c0.501,0.207,1.044,0.387,1.593,0.558c1.105,0.336,2.255,0.621,3.417,0.876
				c2.327,0.508,4.701,0.915,7.086,1.276c9.551,1.436,19.242,2.281,28.924,3.012c9.689,0.711,19.398,1.232,29.113,1.644
				c19.431,0.795,38.886,1.149,58.341,1.183c19.455,0.024,38.913-0.27,58.351-1.046c9.719-0.381,19.434-0.881,29.13-1.613
				c4.847-0.369,9.69-0.793,14.518-1.332c4.823-0.553,9.651-1.17,14.381-2.179c1.18-0.258,2.353-0.544,3.495-0.901
				c1.118-0.363,2.313-0.769,3.116-1.456c0.406-0.376,0.439-0.641,0.102-1.016c-0.336-0.36-0.856-0.656-1.382-0.9
				c-1.066-0.492-2.227-0.84-3.386-1.16c-4.676-1.218-9.506-1.906-14.318-2.553c-9.645-1.236-19.349-2.026-29.057-2.69
				L247.866,188.69z"/>
		</g>
		<path class="st3" d="M247.856,188.84"/>
		<path class="st3" d="M137.389,144.889c-5.153-0.02-9.091,1.583-11.812,4.812c-2.722,3.228-4.082,7.409-4.082,12.541v1.18
			c0,4.718,1.443,8.62,4.33,11.703c2.887,3.084,6.876,4.625,11.967,4.625c2.69,0,5.256-0.363,7.699-1.087
			c2.441-0.724,4.387-1.614,5.836-2.67l-2.514-6.395c-1.718,0.725-3.244,1.253-4.579,1.583c-1.335,0.331-3.007,0.497-5.013,0.497
			c-2.132,0-3.767-0.543-4.905-1.63c-1.139-1.086-1.79-2.509-1.956-4.268l0.062-0.186h19.246V160.1
			c0-4.718-1.247-8.432-3.741-11.144C145.433,146.245,141.921,144.889,137.389,144.889z M141.424,159.044h-9.064l-0.062-0.155
			c0.124-1.82,0.584-3.264,1.381-4.33c0.796-1.065,2.033-1.599,3.71-1.599c1.469,0,2.509,0.446,3.12,1.335
			c0.61,0.89,0.916,2.204,0.916,3.942V159.044z"/>
		<path class="st3" d="M180.755,162.537c-1.967-1.603-5.009-2.809-9.126-3.616c-2.608-0.497-4.342-1.055-5.2-1.676
			c-0.859-0.621-1.288-1.376-1.288-2.266c0-0.931,0.372-1.696,1.118-2.297c0.745-0.6,1.665-0.9,2.763-0.9
			c1.51,0,2.596,0.341,3.259,1.024c0.662,0.683,0.993,1.687,0.993,3.011h10.182l0.062-0.186c0.124-3.166-1.139-5.747-3.787-7.745
			c-2.65-1.997-6.208-2.996-10.679-2.996c-4.243,0-7.605,1.03-10.089,3.089c-2.483,2.06-3.725,4.569-3.725,7.528
			c0,2.815,0.993,5.024,2.98,6.628c1.987,1.604,4.936,2.789,8.847,3.554c2.483,0.518,4.195,1.102,5.138,1.754
			c0.941,0.652,1.412,1.392,1.412,2.22c0,1.014-0.363,1.796-1.086,2.344c-0.725,0.549-1.79,0.823-3.197,0.823
			c-1.697,0-3.007-0.351-3.927-1.055c-0.921-0.703-1.402-1.851-1.443-3.446h-9.499l-0.062,0.186
			c-0.124,2.856,1.143,5.444,3.803,7.761c2.659,2.318,6.275,3.477,10.849,3.477c4.408,0,7.951-0.978,10.632-2.934
			c2.68-1.956,4.02-4.444,4.02-7.466C183.704,166.413,182.721,164.141,180.755,162.537z"/>
		<g>
			<g>
				<path class="st2" d="M200.897,139.215c2.872-8.015,4.408-16.52,4.342-25.029l-0.092-25.603
					c0.004-4.269-0.091-8.514-0.678-12.727c-0.559-4.208-1.483-8.367-2.825-12.387c-2.661-8.05-7.082-15.49-12.85-21.689
					c-5.754-6.208-12.685-11.355-20.419-14.771c-7.723-3.449-16.154-5.151-24.6-5.422c-17.016-0.053-34.122,0.066-51.179,0.089
					l-6.401,0.017l-1.6,0.004c-0.405,0.001-0.745,0.092-1.063,0.29c-0.312,0.19-0.57,0.476-0.723,0.806
					c-0.082,0.163-0.134,0.339-0.161,0.519c-0.018,0.089-0.021,0.181-0.025,0.273l-0.001,0.383l0.034,12.801l0.069,25.603
					l0.138,51.206l0.155,51.206l0.022,6.401l0.011,3.2l0.005,1.6l0.003,0.8l0.002,0.189l0.007,0.106
					c0.005,0.07,0.018,0.14,0.032,0.208c0.117,0.546,0.592,1.005,1.137,1.106c0.167,0.045,0.805,0.022,1.326,0.025l1.6-0.005
					l6.401-0.022l12.801-0.044l6.401-0.022l3.2-0.011l0.4-0.001c0.1-0.001,0.139-0.005,0.209-0.013
					c0.125-0.018,0.246-0.054,0.361-0.107c0.232-0.102,0.434-0.284,0.578-0.502l3.003-4.524l-0.332,5.419l-0.063,1.033l-1.457-1.554
					l0.175-0.001l-1.461,1.461l-0.004-1.213l-0.001-0.369l0.185-0.341c0.086-0.159,0.137-0.31,0.158-0.455
					c0.011-0.091,0.012-0.101,0.012-0.276l-0.002-0.501l-0.007-2.005l-0.011-4.01l-0.016-8.02l-0.032-16.04l0.002-32.081
					l0.069-32.081l0.079-16.04l0.04-8.02l0.02-4.01l0.01-2.005c-0.012-0.929,0.334-1.956,0.97-2.691
					c0.628-0.751,1.539-1.261,2.509-1.407c0.229-0.043,0.514-0.047,0.701-0.051l0.501,0.002l1.003,0.005l4.01,0.02l8.02,0.04
					l4.01,0.02c1.325-0.005,2.764,0.053,4.136,0.205c2.769,0.337,5.515,1.067,8.045,2.282c2.548,1.178,4.83,2.858,6.852,4.751
					c1.996,1.929,3.732,4.088,5.207,6.412c2.937,4.668,4.725,9.973,5.515,15.354c0.406,2.692,0.587,5.408,0.593,8.116l-0.058,8.029
					l-0.183,16.04c-0.065,2.676,0.013,5.334-0.218,8.052c-0.248,2.695-0.759,5.35-1.449,7.949
					c-1.411,5.184-3.346,10.238-6.068,14.872l-0.259-0.152c2.58-4.661,4.375-9.737,5.638-14.893
					c0.617-2.584,1.051-5.212,1.226-7.847c0.158-2.616,0.015-5.313,0.011-7.982l-0.183-16.04l-0.079-8.011
					c-0.05-2.638-0.272-5.268-0.708-7.855c-0.85-5.176-2.648-10.184-5.489-14.533c-1.426-2.166-3.101-4.172-4.98-5.927
					c-1.904-1.723-4.017-3.211-6.341-4.251c-2.306-1.08-4.799-1.716-7.337-2.001c-1.287-0.125-2.522-0.168-3.871-0.15l-4.01,0.02
					l-8.02,0.04l-4.01,0.02l-1.003,0.005l-0.501,0.002c-0.146,0.007-0.198,0.004-0.297,0.024c-0.35,0.058-0.68,0.244-0.907,0.523
					c-0.229,0.29-0.341,0.602-0.338,1.01l0.01,2.005l0.02,4.01l0.04,8.02l0.079,16.04l0.069,32.081l0.002,32.081l-0.032,16.04
					l-0.016,8.02l-0.011,4.01l-0.007,2.005l-0.002,0.501c0.001,0.159-0.008,0.484-0.05,0.723c-0.08,0.517-0.261,1.003-0.498,1.429
					l0.184-0.71l-0.004,1.213l-0.005,1.466l-1.456-0.005l-0.175-0.001l-1.563-0.005l0.105-1.549l0.07-1.033l2.671,0.895
					c-0.446,0.669-1.077,1.219-1.823,1.548c-0.371,0.166-0.768,0.278-1.172,0.331c-0.194,0.025-0.422,0.036-0.589,0.035l-0.4-0.001
					l-3.2-0.011l-6.401-0.022l-12.801-0.044l-6.401-0.022l-1.6-0.005l-0.8-0.003c-0.207,0.006-0.709-0.01-1.067-0.088
					c-1.561-0.312-2.853-1.588-3.183-3.141c-0.042-0.192-0.072-0.388-0.086-0.582l-0.013-0.293l-0.001-0.211l0.003-0.8l0.005-1.6
					l0.011-3.2l0.022-6.401l0.155-51.206l0.138-51.206l0.069-25.603l0.034-12.801l0.004-0.417c0.006-0.175,0.017-0.35,0.049-0.523
					c0.055-0.346,0.161-0.686,0.317-1.001c0.302-0.633,0.793-1.172,1.391-1.535c0.586-0.372,1.323-0.551,1.982-0.542l1.6,0.004
					l6.401,0.017l25.603,0.069c8.545,0.048,17.044-0.013,25.628,0.143c8.595,0.337,17.192,2.136,25.049,5.713
					c7.87,3.545,14.885,8.838,20.681,15.183c5.818,6.342,10.258,13.942,12.896,22.123c1.331,4.086,2.236,8.302,2.77,12.557
					c0.562,4.253,0.627,8.563,0.592,12.824l-0.092,25.603c0.005,8.566-1.602,17.106-4.544,25.132L200.897,139.215z"/>
				<path class="st2" d="M199.779,134.919c-0.057,1.331-0.931,2.577-2.282,3.041c-0.718,0.214-1.322,0.219-1.958,0.321
					c-0.632,0.08-1.264,0.136-1.896,0.187c-0.653,0.037-1.216,0.092-1.944,0.114c-0.83,0.003-1.675-0.3-2.334-0.846
					c-0.662-0.543-1.138-1.332-1.306-2.199c-0.048-0.211-0.063-0.446-0.078-0.646l-0.025-0.474l-0.051-0.948
					c-0.113-1.821,1.181-3.68,3.082-4.184c0.464-0.125,1.017-0.144,1.26-0.155l0.948-0.022c0.632-0.004,1.264,0.026,1.896,0.061
					c0.316,0.026,0.632,0.054,0.948,0.097l0.474,0.07l0.543,0.095c0.908,0.171,1.696,0.696,2.183,1.365
					c0.497,0.663,0.727,1.445,0.716,2.169c0.003,0.375-0.065,0.695-0.097,1.004C199.82,134.287,199.799,134.603,199.779,134.919z
					 M199.479,134.919c-0.02-0.316-0.041-0.632-0.079-0.948c-0.039-0.322-0.07-0.638-0.175-0.887
					c-0.202-0.526-0.612-0.918-1.061-1.094c-0.447-0.183-0.891-0.177-1.247-0.064c-0.058,0.021-0.254,0.056-0.404,0.079l-0.474,0.07
					c-0.316,0.043-0.632,0.071-0.948,0.097c-0.632,0.036-1.264,0.065-1.896,0.061c-0.582,0.004-1.43-0.054-1.574-0.045
					c-0.606,0.003-1.243,0.545-1.316,1.283l-0.051,0.948l-0.025,0.474c-0.001,0.116-0.012,0.198,0,0.298
					c0.023,0.383,0.188,0.768,0.472,1.065c0.274,0.306,0.661,0.522,1.095,0.583c0.535,0.054,1.237,0.086,1.847,0.13
					c0.632,0.051,1.264,0.107,1.896,0.187c0.623,0.061,1.297,0.211,1.824,0.189c0.565-0.042,1.132-0.316,1.533-0.764
					C199.301,136.131,199.495,135.516,199.479,134.919z"/>
			</g>
		</g>
		<rect x="189.105" y="145.51" class="st3" width="10.523" height="33.588"/>
		<path class="st3" d="M225.86,149.701c-0.973-1.531-2.132-2.716-3.477-3.554c-1.346-0.838-2.898-1.257-4.656-1.257
			c-4.16,0-7.384,1.604-9.67,4.812c-2.287,3.208-3.43,7.43-3.43,12.665v0.652c0,5.029,1.137,9.076,3.415,12.138
			c2.276,3.063,5.483,4.594,9.623,4.594c1.614,0,3.047-0.31,4.299-0.931c1.252-0.621,2.354-1.541,3.306-2.763v2.608
			c0,1.925-0.543,3.332-1.63,4.222c-1.086,0.889-2.747,1.335-4.982,1.335c-1.781,0-3.358-0.161-4.734-0.481
			c-1.377-0.322-2.82-0.813-4.33-1.475l-1.8,7.761c1.738,0.807,3.559,1.448,5.463,1.925c1.904,0.476,3.725,0.714,5.463,0.714
			c5.318,0,9.493-1.216,12.526-3.647c3.031-2.432,4.548-5.863,4.548-10.291V145.51h-9.251L225.86,149.701z M225.27,169.568
			c-0.518,0.704-1.185,1.232-2.002,1.583c-0.818,0.353-1.796,0.528-2.934,0.528c-1.905,0-3.255-0.761-4.051-2.282
			c-0.797-1.521-1.195-3.648-1.195-6.379v-0.652c0-2.814,0.419-5.085,1.257-6.814c0.838-1.727,2.188-2.592,4.051-2.592
			c1.118,0,2.08,0.213,2.887,0.636c0.807,0.425,1.469,1.04,1.987,1.847V169.568z"/>
		<path class="st3" d="M269.024,148.242c-1.853-2.235-4.424-3.353-7.714-3.353c-1.987,0-3.787,0.471-5.401,1.412
			c-1.614,0.942-2.97,2.251-4.067,3.927l-0.404-4.718h-9.84v33.588h10.461v-23.872c0.6-0.724,1.345-1.283,2.235-1.676
			c0.889-0.392,1.894-0.59,3.011-0.59c1.304,0,2.297,0.45,2.98,1.35c0.683,0.9,1.024,2.417,1.024,4.548v20.24h10.492v-20.209
			C271.803,154.027,270.876,150.477,269.024,148.242z"/>
		<g>
			<path class="st2" d="M234.764,191.934c8.071,0.312,16.141,0.696,24.199,1.345c4.028,0.343,8.055,0.705,12.063,1.398
				c1.001,0.186,2.001,0.381,2.998,0.697c0.499,0.173,0.995,0.315,1.51,0.749c0.065,0.075,0.128,0.155,0.186,0.237
				c0.056,0.09,0.089,0.24,0.109,0.362c0.004,0.123-0.033,0.272-0.08,0.377c-0.053,0.087-0.116,0.189-0.179,0.255
				c-0.256,0.259-0.509,0.373-0.759,0.5c-0.998,0.44-1.992,0.657-2.992,0.879c-1,0.212-2.001,0.384-3.004,0.542
				c-8.028,1.182-16.096,1.725-24.162,2.258c-8.068,0.503-16.141,0.873-24.216,1.172c-16.151,0.57-32.31,0.857-48.469,0.96
				c-16.16,0.096-32.322,0.006-48.483-0.343c-8.081-0.168-16.162-0.399-24.244-0.743c-8.083-0.356-16.161-0.776-24.255-1.556
				c-2.024-0.205-4.048-0.437-6.082-0.737c-1.018-0.153-2.037-0.322-3.07-0.537c-0.517-0.108-1.037-0.228-1.572-0.378
				c-0.536-0.152-1.071-0.313-1.719-0.64c-0.172-0.095-0.344-0.192-0.554-0.356c-0.115-0.097-0.219-0.187-0.331-0.306
				c-0.144-0.18-0.267-0.35-0.371-0.585c-0.057-0.149-0.1-0.311-0.125-0.473c-0.025-0.145-0.042-0.321,0.009-0.588
				c0.095-0.477,0.318-0.742,0.466-0.911c0.313-0.324,0.542-0.438,0.723-0.537c0.726-0.359,1.231-0.467,1.782-0.616
				c1.067-0.259,2.088-0.432,3.112-0.59c2.042-0.308,4.065-0.545,6.091-0.735c8.095-0.752,16.169-1.183,24.249-1.573
				c16.162-0.63,32.318-1.035,48.478-1.162c8.08-0.05,16.16-0.066,24.239-0.03c8.08,0.091,16.158,0.166,24.235,0.396v0.3
				l-24.219,0.673c-8.072,0.216-16.142,0.46-24.21,0.751c-16.135,0.57-32.271,1.127-48.375,2.068
				c-8.05,0.427-16.108,0.897-24.093,1.678c-1.992,0.208-3.984,0.41-5.937,0.695c-0.972,0.142-1.945,0.304-2.841,0.516
				c-0.425,0.1-0.906,0.247-1.084,0.341c-0.045,0.013-0.031,0.039,0.106-0.105c0.064-0.077,0.209-0.234,0.284-0.586
				c0.031-0.205,0.022-0.319,0.016-0.403c-0.011-0.1-0.04-0.2-0.083-0.288c-0.049-0.123-0.089-0.194-0.166-0.268
				c-0.022-0.03-0.028-0.04-0.049-0.053c-0.011-0.009,0.036,0.024,0.084,0.05c0.252,0.132,0.681,0.289,1.116,0.408
				c0.436,0.126,0.9,0.237,1.37,0.339c0.943,0.203,1.915,0.372,2.892,0.526c1.959,0.302,3.946,0.545,5.938,0.761
				c7.976,0.863,16.029,1.38,24.076,1.828c8.051,0.437,16.113,0.763,24.178,1.025c16.13,0.499,32.273,0.739,48.417,0.792
				c16.143,0.047,32.289-0.09,48.426-0.51c8.069-0.2,16.136-0.469,24.195-0.871c8.052-0.432,16.125-0.876,24.096-1.95
				c0.993-0.143,1.984-0.302,2.963-0.496c0.97-0.199,1.964-0.416,2.82-0.783c0.202-0.093,0.411-0.207,0.511-0.31
				c0.023-0.024,0.021-0.037,0.042-0.051c-0.003-0.009-0.006,0.01,0,0.012c-0.019,0.003,0.006,0.02-0.003,0.004
				c-0.021-0.018-0.036-0.037-0.048-0.061c-0.254-0.226-0.74-0.429-1.189-0.575c-0.925-0.307-1.909-0.514-2.889-0.708
				c-3.944-0.733-7.966-1.146-11.978-1.537c-8.034-0.747-16.096-1.231-24.16-1.643L234.764,191.934z"/>
		</g>
	</g>
</g>
<g id="Layer_2" class="st0">
	<g class="st1">
		<path class="st3" d="M97.443,156.285l-3.03-0.085c-1.228,0-2.237,0.255-3.03,0.765s-1.397,1.228-1.813,2.152v20.702h-8.241
			v-30.643h7.675l0.368,4.531c0.718-1.604,1.647-2.855,2.789-3.752c1.143-0.897,2.46-1.346,3.951-1.346
			c0.415,0,0.798,0.033,1.146,0.1c0.35,0.065,0.704,0.146,1.063,0.24L97.443,156.285z"/>
		<path class="st3" d="M119.816,179.819c-0.302-0.698-0.562-1.435-0.779-2.209c-0.217-0.774-0.372-1.567-0.467-2.379
			c-0.85,1.491-1.973,2.729-3.37,3.71s-3.059,1.473-4.984,1.473c-3.21,0-5.683-0.826-7.42-2.478
			c-1.737-1.652-2.605-3.904-2.605-6.755c0-3.002,1.156-5.329,3.47-6.981c2.313-1.651,5.688-2.478,10.124-2.478h4.645v-2.436
			c0-1.473-0.387-2.615-1.161-3.427s-1.926-1.218-3.455-1.218c-1.341,0-2.374,0.325-3.102,0.978c-0.727,0.65-1.09,1.543-1.09,2.676
			h-7.958l-0.057-0.17c-0.132-2.587,0.996-4.819,3.384-6.697c2.389-1.879,5.509-2.818,9.36-2.818c3.682,0,6.66,0.925,8.935,2.775
			c2.275,1.851,3.413,4.503,3.413,7.958v12.659c0,1.435,0.108,2.785,0.325,4.05c0.218,1.265,0.563,2.521,1.034,3.767H119.816z
			 M112.254,174.297c1.435,0,2.719-0.358,3.852-1.076s1.907-1.548,2.322-2.492v-4.333h-4.645c-1.756,0-3.082,0.435-3.979,1.303
			c-0.896,0.868-1.345,1.936-1.345,3.2c0,1.038,0.335,1.864,1.005,2.478C110.135,173.99,111.065,174.297,112.254,174.297z"/>
		<path class="st3" d="M140.461,149.177l0.368,4.39c1.02-1.567,2.275-2.785,3.767-3.653s3.162-1.303,5.013-1.303
			c3.097,0,5.513,0.996,7.25,2.988c1.737,1.991,2.605,5.14,2.605,9.444v18.776h-8.298v-18.748c0-2.19-0.382-3.743-1.147-4.658
			c-0.764-0.916-1.911-1.374-3.44-1.374c-1.228,0-2.308,0.231-3.243,0.694c-0.934,0.462-1.703,1.1-2.308,1.911v22.175h-8.27v-30.643
			H140.461z"/>
		<path class="st3" d="M164.363,164.753c0-4.833,1.043-8.732,3.13-11.696c2.086-2.964,5.026-4.446,8.821-4.446
			c1.529,0,2.907,0.33,4.135,0.991s2.304,1.604,3.229,2.832V135.64h8.298v44.18h-7.052l-0.708-3.767
			c-0.963,1.416-2.105,2.497-3.427,3.243c-1.321,0.745-2.832,1.118-4.531,1.118c-3.757,0-6.679-1.378-8.765-4.135
			c-2.087-2.757-3.13-6.4-3.13-10.932V164.753z M172.605,165.348c0,2.681,0.453,4.791,1.359,6.329
			c0.906,1.539,2.379,2.309,4.418,2.309c1.189,0,2.228-0.24,3.115-0.723c0.888-0.48,1.614-1.185,2.181-2.109v-13.056
			c-0.566-0.963-1.288-1.714-2.167-2.251c-0.877-0.539-1.901-0.808-3.072-0.808c-2.021,0-3.498,0.896-4.432,2.69
			c-0.936,1.794-1.402,4.135-1.402,7.023V165.348z"/>
		<path class="st3" d="M207.07,141.842h-8.27v-6.202h8.27V141.842z M207.07,179.819h-8.27v-30.643h8.27V179.819z"/>
		<path class="st3" d="M221.429,149.177l0.368,4.39c1.02-1.567,2.275-2.785,3.767-3.653s3.162-1.303,5.013-1.303
			c3.097,0,5.513,0.996,7.25,2.988c1.737,1.991,2.605,5.14,2.605,9.444v18.776h-8.298v-18.748c0-2.19-0.382-3.743-1.147-4.658
			c-0.764-0.916-1.911-1.374-3.44-1.374c-1.228,0-2.308,0.231-3.243,0.694c-0.934,0.462-1.703,1.1-2.308,1.911v22.175h-8.27v-30.643
			H221.429z"/>
		<path class="st3" d="M245.388,164.753c0-4.833,1.048-8.732,3.144-11.696s5.041-4.446,8.836-4.446c1.718,0,3.229,0.387,4.531,1.161
			s2.417,1.879,3.342,3.313l0.651-3.908H273v30.501c0,3.983-1.303,7.065-3.908,9.247c-2.605,2.18-6.24,3.271-10.903,3.271
			c-1.548,0-3.19-0.212-4.928-0.638c-1.737-0.424-3.342-1.005-4.814-1.741l1.388-6.174c1.265,0.604,2.572,1.062,3.922,1.374
			c1.351,0.311,2.809,0.467,4.376,0.467c2.266,0,3.932-0.472,4.999-1.416c1.066-0.944,1.6-2.417,1.6-4.418v-2.775
			c-0.906,1.151-1.973,2.029-3.2,2.634s-2.634,0.906-4.22,0.906c-3.757,0-6.684-1.378-8.779-4.135s-3.144-6.4-3.144-10.932V164.753z
			 M253.657,165.348c0,2.681,0.448,4.791,1.345,6.329c0.897,1.539,2.365,2.309,4.404,2.309c1.265,0,2.336-0.231,3.215-0.693
			c0.877-0.463,1.581-1.138,2.109-2.025v-13.282c-0.528-0.944-1.232-1.671-2.109-2.181c-0.879-0.51-1.931-0.765-3.158-0.765
			c-2.021,0-3.493,0.896-4.418,2.69s-1.388,4.135-1.388,7.023V165.348z"/>
		<g>
			<g>
				<path class="st2" d="M162.551,144.295c0.395-2.985,0.692-5.99,0.934-8.994c0.113-1.501,0.222-3.008,0.231-4.504
					c-0.026-1.502-0.067-3.005-0.231-4.498c-0.572-5.974-2.421-11.836-5.577-16.935c-1.578-2.545-3.408-4.938-5.608-6.96
					c-2.184-2.035-4.672-3.732-7.34-5.071c-0.667-0.334-1.345-0.647-2.032-0.941c-0.726-0.302-1.453-0.787-1.955-1.442
					c-1.036-1.298-1.271-3.171-0.573-4.688c0.334-0.759,0.908-1.415,1.563-1.888c0.602-0.44,1.188-0.9,1.762-1.375
					c1.142-0.957,2.219-1.988,3.218-3.091c3.99-4.418,6.705-9.951,7.929-15.763c0.604-2.913,0.87-5.893,0.792-8.876
					c-0.029-2.989-0.312-5.973-0.877-8.897c-1.105-5.844-3.467-11.463-7.172-16.092c-3.674-4.657-8.589-8.217-13.898-10.88
					c-5.341-2.63-11.092-4.408-16.966-5.498c-2.937-0.55-5.903-0.969-8.887-1.223c-2.981-0.283-5.976-0.42-8.974-0.463
					l-36.196,0.082l-9.053,0.028l-4.527,0.014c-0.358,0.005-0.797-0.005-1.089,0.011c-0.282,0.003-0.556,0.07-0.821,0.154
					c-0.53,0.18-1.001,0.521-1.36,0.958c-0.348,0.445-0.585,0.978-0.652,1.542c-0.03,0.139-0.016,0.283-0.031,0.426l0.002,0.566
					l0.004,1.132l0.014,4.527l0.028,9.053l0.112,36.212l0.285,72.425l0.042,18.106l0.021,9.053l0.005,2.263l0.003,1.132
					c-0.004,0.22,0.012,0.297,0.014,0.425c0.019,0.117,0.026,0.236,0.059,0.349c0.201,0.921,0.958,1.696,1.849,1.891
					c0.11,0.028,0.224,0.042,0.338,0.056c0.112,0.003,0.212,0.017,0.431,0.013l1.132,0.002l2.263,0.004l4.527,0.007l9.053,0.015
					l4.527,0.007l1.132,0.002l0.566,0.001l0.283,0l0.188-0.009c0.466-0.019,0.916-0.19,1.296-0.467
					c0.384-0.275,0.685-0.669,0.869-1.109c0.09-0.222,0.145-0.456,0.179-0.694c0.006-0.14,0.019-0.2,0.02-0.406l0.005-0.566
					l0.042-4.526l0.242-18.102l0.119-9.051l0.052-9.051l0.103-18.103l0.037-4.58c0.076-1.932,1.304-3.784,3.104-4.546
					c0.447-0.184,0.916-0.334,1.399-0.384c0.235-0.038,0.492-0.035,0.713-0.044l0.566,0.006l2.263,0.022l4.527,0.045l18.108,0.181
					c3.064,0.042,6.143,0.325,9.157,1.027c3.002,0.714,5.954,1.866,8.517,3.666c2.562,1.798,4.649,4.226,6.097,6.965
					c1.461,2.741,2.266,5.765,2.631,8.795c0.184,1.517,0.272,3.043,0.257,4.564c0.017,1.556-0.278,3.058-0.537,4.546
					c-0.568,2.976-1.233,5.92-2.048,8.839l-0.289-0.081c0.722-2.917,1.302-5.885,1.778-8.853c0.215-1.485,0.459-2.977,0.396-4.444
					c-0.029-1.496-0.16-2.987-0.383-4.459c-0.442-2.941-1.309-5.825-2.77-8.379c-1.448-2.553-3.474-4.766-5.904-6.366
					c-2.428-1.614-5.213-2.657-8.086-3.277c-2.882-0.612-5.851-0.828-8.819-0.81l-18.104,0.177l-4.527,0.045l-2.263,0.022
					l-0.566,0.006c-0.155,0.014-0.278,0.007-0.415,0.035c-0.27,0.029-0.524,0.126-0.771,0.228c-0.989,0.445-1.678,1.489-1.703,2.582
					l0.017,4.473l0.103,18.109l0.052,9.055l-0.016,9.055l-0.035,18.109l-0.027,4.527l-0.003,0.566
					c0.001,0.171-0.017,0.488-0.038,0.724c-0.064,0.509-0.185,1.013-0.379,1.492c-0.39,0.954-1.039,1.803-1.878,2.414
					c-0.832,0.614-1.857,0.999-2.898,1.054l-0.377,0.016l-0.283,0l-0.566,0.001l-1.132,0.002l-4.527,0.007l-9.053,0.015
					l-4.527,0.007l-2.263,0.004l-1.132,0.002c-0.159,0.004-0.436-0.006-0.7-0.023c-0.26-0.026-0.523-0.062-0.778-0.124
					c-2.076-0.461-3.741-2.189-4.177-4.228c-0.064-0.251-0.092-0.51-0.123-0.767c-0.014-0.249-0.029-0.548-0.024-0.705l0.003-1.132
					l0.005-2.263l0.021-9.053l0.042-18.106l0.285-72.425l0.112-36.212l0.028-9.053l0.014-4.527l0.004-1.132l0.002-0.566
					c0.016-0.233,0.009-0.47,0.053-0.702c0.121-0.936,0.518-1.83,1.108-2.565c0.6-0.728,1.399-1.297,2.303-1.599
					c0.451-0.145,0.922-0.246,1.396-0.254c0.461-0.018,0.778-0.003,1.174-0.006l4.527,0.014l9.053,0.028l36.228,0.144
					c3.036,0.062,6.073,0.221,9.1,0.527c3.028,0.277,6.044,0.722,9.034,1.301c5.979,1.148,11.859,3,17.336,5.741
					c5.433,2.78,10.501,6.508,14.285,11.385c3.814,4.845,6.208,10.699,7.291,16.706c0.554,3.007,0.817,6.06,0.822,9.105
					c0.054,3.05-0.244,6.119-0.891,9.11c-1.313,5.978-4.146,11.634-8.291,16.149c-1.037,1.125-2.153,2.176-3.333,3.148
					c-0.593,0.482-1.197,0.95-1.817,1.395c-0.57,0.408-1.022,0.922-1.306,1.544c-0.584,1.231-0.403,2.792,0.442,3.864
					c0.42,0.548,0.976,0.934,1.638,1.22c0.698,0.306,1.388,0.631,2.067,0.978c2.714,1.39,5.247,3.148,7.462,5.248
					c2.233,2.087,4.081,4.547,5.659,7.14c3.163,5.206,4.986,11.168,5.513,17.205c0.152,1.509,0.182,3.026,0.195,4.541
					c-0.021,1.523-0.144,3.027-0.27,4.534c-0.268,3.01-0.59,6.011-1.011,9.006L162.551,144.295z"/>
				<path class="st2" d="M76.006,44.598c-0.019-1.744,1.146-3.421,2.791-3.986c0.822-0.316,1.702-0.237,2.522-0.253l2.507-0.013
					l10.029-0.168c6.641-0.26,13.605-0.081,19.961,2.74c3.122,1.427,6.032,3.639,7.948,6.613c1.94,2.951,2.919,6.412,3.271,9.834
					c0.335,3.414,0.254,6.931-0.711,10.34c-0.948,3.395-2.921,6.588-5.642,8.898c-2.694,2.34-5.952,3.904-9.296,4.871
					c-3.355,0.972-6.805,1.396-10.23,1.549c-3.422,0.066-6.708,0.079-10.068,0.095l-5.014-0.029l-2.507-0.015l-1.254-0.007
					c-0.477-0.005-1.128-0.052-1.659-0.229c-2.242-0.658-3.818-2.817-3.883-5.057c-0.014-0.306-0.006-0.502-0.002-0.708l0.02-0.627
					l0.041-1.254l0.082-2.507l0.444-10.029l0.43-10.029C75.901,51.284,75.959,47.941,76.006,44.598z M76.306,44.598
					c0.047,3.343,0.106,6.686,0.222,10.029l0.43,10.029l0.444,10.029l0.165,4.933c0.08,1.112,0.911,2.102,1.927,2.34
					c0.268,0.082,0.461,0.087,0.818,0.094l1.254-0.007l2.507-0.015L89.087,82l9.989,0.053c3.251-0.052,6.495-0.364,9.594-1.168
					c3.091-0.799,6.035-2.127,8.459-4.114c2.425-1.973,4.185-4.67,5.11-7.688c0.934-3.02,1.1-6.307,0.854-9.536
					c-0.258-3.215-1.094-6.39-2.78-9.085c-1.663-2.711-4.233-4.777-7.139-6.191c-2.903-1.446-6.123-2.276-9.382-2.771
					c-3.269-0.527-6.586-0.629-9.937-0.695l-10.029-0.168l-2.507-0.013c-0.838,0.011-1.679-0.086-2.436,0.225
					C77.346,41.395,76.273,42.975,76.306,44.598z"/>
			</g>
		</g>
		<g>
			<path class="st2" d="M280.299,191.137c5.416,0.636,10.833,1.345,16.176,2.521c1.333,0.306,2.663,0.635,3.969,1.068
				c0.653,0.216,1.302,0.452,1.934,0.747c0.624,0.306,1.262,0.627,1.771,1.203c0.244,0.279,0.458,0.709,0.367,1.147
				c-0.075,0.429-0.339,0.762-0.611,1.001c-0.553,0.497-1.186,0.81-1.818,1.103c-1.275,0.556-2.593,0.956-3.917,1.313
				c-5.311,1.372-10.726,2.148-16.135,2.875c-5.415,0.699-10.844,1.26-16.278,1.748c-21.743,1.912-43.552,2.859-65.361,3.464
				c-21.813,0.552-43.634,0.68-65.454,0.414c-21.819-0.288-43.64-0.933-65.436-2.363c-10.897-0.74-21.791-1.602-32.656-3.19
				c-2.717-0.409-5.43-0.867-8.144-1.476c-1.357-0.308-2.713-0.649-4.076-1.094c-0.682-0.22-1.366-0.476-2.06-0.795
				c-0.694-0.344-1.399-0.645-2.161-1.475c-0.361-0.367-0.794-1.174-0.675-2.028c0.045-0.444,0.215-0.753,0.386-1.064
				c0.171-0.233,0.372-0.502,0.551-0.647c0.747-0.679,1.445-1.003,2.138-1.333c1.378-0.602,2.732-1.011,4.09-1.378
				c2.712-0.718,5.422-1.236,8.136-1.702c10.86-1.766,21.749-2.738,32.647-3.564c10.9-0.767,21.808-1.311,32.717-1.721
				c21.823-0.696,43.651-0.953,65.472-0.698c10.91,0.141,21.819,0.371,32.723,0.725c10.902,0.41,21.802,0.873,32.688,1.586
				l-0.013,0.3c-10.902-0.253-21.802-0.467-32.703-0.517c-10.9-0.102-21.8-0.104-32.698-0.003
				c-21.795,0.188-43.589,0.598-65.351,1.604c-10.882,0.448-21.758,1.03-32.609,1.832c-10.843,0.807-21.709,1.694-32.388,3.385
				c-2.662,0.432-5.317,0.919-7.883,1.574c-1.276,0.331-2.54,0.71-3.666,1.191c-0.541,0.239-1.078,0.536-1.341,0.779
				c-0.093,0.066-0.073,0.092-0.121,0.12c0.023-0.007,0.007-0.018,0.038-0.114c0.035-0.18-0.106-0.3,0.002-0.176
				c0.145,0.2,0.689,0.541,1.216,0.779c0.542,0.255,1.134,0.485,1.747,0.689c1.225,0.412,2.512,0.751,3.811,1.057
				c2.602,0.609,5.264,1.084,7.935,1.509c10.705,1.66,21.565,2.618,32.415,3.449c21.72,1.576,43.51,2.37,65.299,2.807
				c21.792,0.416,43.595,0.438,65.39,0.036c21.792-0.404,43.591-1.151,65.318-2.861c5.43-0.437,10.855-0.947,16.261-1.595
				c5.398-0.674,10.811-1.402,16.076-2.711c1.31-0.339,2.612-0.724,3.842-1.247c0.604-0.271,1.209-0.573,1.675-0.987
				c0.5-0.412,0.634-0.955,0.21-1.413c-0.391-0.458-0.994-0.791-1.584-1.081c-0.601-0.287-1.233-0.525-1.872-0.742
				c-1.278-0.436-2.595-0.776-3.916-1.091c-5.3-1.218-10.707-1.976-16.11-2.661L280.299,191.137z"/>
		</g>
		<g>
			<path class="st2" d="M269.644,193.772c4.916,0.361,9.831,0.761,14.723,1.443c1.222,0.177,2.443,0.37,3.657,0.627
				c0.607,0.13,1.213,0.272,1.813,0.458c0.594,0.222,1.214,0.325,1.756,0.942c0.153,0.169,0.151,0.513,0.029,0.707
				c-0.119,0.198-0.268,0.304-0.411,0.412c-0.291,0.181-0.587,0.32-0.885,0.427c-0.596,0.223-1.199,0.389-1.805,0.532
				c-1.211,0.29-2.43,0.507-3.651,0.702c-4.886,0.758-9.8,1.211-14.714,1.629c-4.915,0.407-9.835,0.734-14.757,1.023
				c-19.689,1.13-39.4,1.716-59.113,2.102c-19.714,0.346-39.431,0.448-59.149,0.323c-19.718-0.138-39.437-0.483-59.152-1.282
				c-9.859-0.41-19.714-0.889-29.577-1.791c-2.466-0.232-4.933-0.494-7.407-0.843c-1.238-0.177-2.477-0.373-3.731-0.632
				c-0.627-0.129-1.259-0.277-1.911-0.471c-0.325-0.096-0.659-0.209-1.013-0.355c-0.361-0.17-0.73-0.297-1.248-0.778
				c-0.162-0.192-0.298-0.35-0.42-0.624c-0.126-0.34-0.196-0.703-0.105-1.055c0.035-0.169,0.102-0.374,0.165-0.487
				c0.06-0.104,0.128-0.206,0.202-0.303c0.167-0.225,0.27-0.289,0.394-0.397c0.487-0.378,0.829-0.501,1.183-0.654
				c0.691-0.274,1.321-0.438,1.957-0.597c1.264-0.307,2.503-0.529,3.742-0.729c2.476-0.395,4.941-0.689,7.407-0.954
				c19.717-1.941,39.433-2.519,59.156-3.007c9.862-0.176,19.723-0.274,29.583-0.311l14.791-0.009
				c4.93,0.021,9.86,0.009,14.789,0.161l29.571,0.754l29.556,0.927l-0.009,0.3l-29.568,0.141l-29.553-0.032
				c-19.701,0.119-39.401,0.443-59.086,1.067c-9.843,0.266-19.683,0.605-29.513,1.073c-9.826,0.455-19.662,0.949-29.417,1.89
				c-2.436,0.238-4.867,0.505-7.261,0.864c-1.194,0.181-2.384,0.385-3.517,0.649c-0.56,0.132-1.125,0.281-1.581,0.46l-0.306,0.131
				c-0.041,0.031-0.181,0.094-0.135,0.079c0.007-0.008-0.023,0.012,0.065-0.077c0.028-0.035,0.05-0.075,0.064-0.117
				c0.024-0.048,0.087-0.171,0.099-0.267c0.021-0.203,0.03-0.416-0.068-0.607c-0.061-0.136-0.084-0.18-0.161-0.245
				c-0.065-0.058,0.13,0.085,0.331,0.162c0.214,0.09,0.463,0.18,0.728,0.26c0.527,0.162,1.094,0.304,1.673,0.428
				c1.156,0.251,2.35,0.453,3.549,0.636c2.401,0.363,4.834,0.646,7.271,0.898c9.758,0.988,19.593,1.562,29.421,2.066
				c19.667,0.947,39.365,1.441,59.064,1.729c19.7,0.275,39.405,0.323,59.108,0.128c19.702-0.186,39.406-0.571,59.085-1.501
				c4.919-0.239,9.836-0.516,14.747-0.872c4.908-0.367,9.82-0.77,14.681-1.474c1.213-0.181,2.424-0.384,3.613-0.656
				c0.594-0.134,1.184-0.291,1.743-0.493c0.282-0.097,0.547-0.222,0.781-0.363c0.103-0.076,0.204-0.157,0.245-0.227
				c0.02-0.069,0.055-0.079-0.005-0.159c-0.267-0.336-0.925-0.568-1.47-0.748c-0.574-0.184-1.168-0.33-1.764-0.464
				c-1.194-0.266-2.406-0.47-3.62-0.659c-4.863-0.728-9.773-1.179-14.68-1.589L269.644,193.772z"/>
		</g>
	</g>
</g>
<g id="Layer_3">
	<g class="st4">
		<path class="st3" d="M154.296,153.762l7.603-14.462h9.469l-12.031,20.236l12.727,20.573h-9.831l-7.826-14.715l-7.826,14.715
			h-9.497l12.337-20.573l-12.031-20.236h9.413L154.296,153.762z"/>
		<path class="st3" d="M188.177,183.611h-7.909l14.872-44.312h7.909L188.177,183.611z"/>
		<path class="st3" d="M244.595,139.299v26.711c0,4.597-1.514,8.194-4.539,10.791c-3.027,2.598-6.953,3.896-11.78,3.896
			c-4.809,0-8.713-1.298-11.711-3.896c-2.999-2.597-4.498-6.194-4.498-10.791v-26.711h8.16v26.711c0,2.729,0.724,4.812,2.172,6.25
			c1.448,1.439,3.407,2.158,5.876,2.158c2.506,0,4.493-0.719,5.96-2.158c1.466-1.438,2.2-3.522,2.2-6.25v-26.711H244.595z"/>
		<path class="st3" d="M260.33,180.108h-8.132v-40.809h8.132V180.108z"/>
		<g>
			<path class="st2" d="M133.958,155.327c-2.126,0.385-4.259,0.62-6.396,0.855c-2.139,0.217-4.275,0.43-6.436,0.504
				c-4.31,0.055-8.662-0.42-12.786-1.782c-4.118-1.345-7.957-3.624-11.049-6.692c-3.113-3.062-5.361-6.942-6.718-11.071
				c-1.368-4.136-1.942-8.491-2.021-12.816l-0.09-12.888l-0.15-25.759l-0.225-51.519l-0.028-6.44l-0.014-3.22l-0.007-1.61
				c-0.003-0.255,0.003-0.566-0.008-0.776c-0.008-0.195-0.031-0.389-0.083-0.575c-0.185-0.75-0.723-1.407-1.419-1.73
				c-0.345-0.165-0.723-0.253-1.107-0.255l-1.6,0.005l-6.44,0.028l-12.88,0.056l-3.22,0.014L60.88,19.66
				c-0.147-0.002-0.263,0.003-0.34,0.01c-0.184,0.005-0.364,0.042-0.539,0.091c-0.35,0.098-0.679,0.276-0.951,0.522
				c-0.55,0.494-0.878,1.191-0.857,1.962l0.014,3.22l0.476,102.936c0.471,8.378,2.451,16.731,6.574,24.024
				c4.079,7.31,10.232,13.356,17.315,17.922c7.103,4.565,15.229,7.481,23.603,8.965c4.187,0.77,8.444,1.199,12.716,1.357
				c2.138,0.114,4.268,0.079,6.413,0.01c2.142-0.063,4.285-0.163,6.424-0.314l0.029,0.299c-8.522,1.084-17.226,1.232-25.803-0.002
				c-8.559-1.259-16.992-4.017-24.487-8.541c-7.489-4.478-14.007-10.779-18.456-18.412c-4.477-7.63-6.694-16.399-7.321-25.113
				c-0.288-4.404-0.172-8.685-0.211-12.973l-0.029-12.88l0.073-25.759l0.285-51.519l0.014-3.22c-0.027-1.383,0.619-2.82,1.692-3.732
				c0.532-0.465,1.173-0.808,1.857-0.995c0.341-0.093,0.694-0.156,1.046-0.168c0.191-0.011,0.343-0.012,0.464-0.01l0.402,0.002
				l3.22,0.014l12.88,0.056l6.44,0.028l1.62,0.009c0.689,0.009,1.38,0.174,2,0.479c1.248,0.6,2.185,1.771,2.507,3.111
				c0.086,0.332,0.127,0.675,0.136,1.016c0.01,0.327,0.001,0.553,0.002,0.834l-0.007,1.61l-0.014,3.22l-0.028,6.44l-0.225,51.519
				l-0.15,25.759c0.153,8.556-0.908,17.296,1.766,25.425c1.274,4.033,3.406,7.811,6.392,10.819c2.975,3.021,6.686,5.288,10.71,6.655
				c4.026,1.383,8.323,1.906,12.586,1.901c2.132-0.048,4.274-0.236,6.408-0.427c2.132-0.209,4.273-0.421,6.377-0.777
				L133.958,155.327z"/>
		</g>
		<g>
			<path class="st2" d="M184.646,134.067l-0.601-65.342l-0.225-32.679l-0.056-8.17l-0.028-4.085l-0.007-1.021l-0.004-0.511
				c-0.006-0.16-0.009-0.255-0.025-0.383c-0.061-0.481-0.257-0.936-0.56-1.311c-0.305-0.371-0.708-0.662-1.158-0.812
				c-0.223-0.08-0.457-0.126-0.695-0.135c-0.1-0.007-0.261-0.009-0.441-0.006l-0.511,0.004l-4.085,0.028l-8.17,0.056l-8.17,0.071
				l-2.042,0.018l-1.021,0.009l-0.486,0.008c-0.11,0.008-0.22,0.01-0.327,0.035c-0.861,0.137-1.61,0.814-1.849,1.65
				c-0.05,0.21-0.095,0.423-0.092,0.642l0.005,0.988l0.018,2.042l0.036,4.085l0.071,8.17l0.073,16.34l-0.058,16.34
				c-0.156,10.893-0.233,21.786-0.454,32.679l-0.361,16.34c-0.085,2.719-0.153,5.452-0.295,8.177
				c-0.14,2.726-0.255,5.444-0.597,8.173l-0.298-0.036c0.14-5.424,0-10.869-0.179-16.314l-0.361-16.34
				c-0.222-10.893-0.298-21.786-0.454-32.679l-0.058-16.34l0.073-16.34l0.071-8.17l0.036-4.085l0.018-2.042l0.014-1.054
				c0.008-0.463,0.099-0.923,0.228-1.368c0.55-1.784,2.155-3.174,4.003-3.438c0.228-0.041,0.459-0.051,0.689-0.058l0.535,0.001
				l1.021,0.009l2.042,0.018l8.17,0.071l8.17,0.056l4.085,0.028l0.511,0.004c0.16,0,0.34,0.001,0.579,0.017
				c0.442,0.026,0.882,0.119,1.298,0.273c0.838,0.298,1.574,0.844,2.119,1.534c0.546,0.692,0.892,1.538,0.99,2.411
				c0.025,0.209,0.03,0.456,0.033,0.636l-0.004,0.511l-0.007,1.021l-0.028,4.085l-0.056,8.17l-0.225,32.679l-0.601,65.37
				L184.646,134.067z"/>
		</g>
		<g>
			<path class="st2" d="M199.371,184.645c20.213,0.356,40.431,1.076,60.595,2.761c5.04,0.431,10.076,0.934,15.1,1.571
				c5.021,0.66,10.041,1.382,14.996,2.628c1.238,0.319,2.47,0.678,3.686,1.151c0.607,0.241,1.212,0.503,1.803,0.851
				c0.569,0.37,1.221,0.742,1.6,1.623c0.18,0.436,0.141,1.035-0.085,1.425c-0.211,0.399-0.492,0.688-0.773,0.92
				c-0.569,0.463-1.167,0.783-1.768,1.057c-1.203,0.558-2.433,0.941-3.665,1.302c-4.94,1.37-9.956,2.157-14.973,2.884
				c-10.044,1.384-20.132,2.259-30.225,2.984c-10.095,0.711-20.2,1.223-30.309,1.612c-20.218,0.766-40.452,1.037-60.684,0.907
				c-20.232-0.128-40.468-0.637-60.686-1.863c-10.107-0.656-20.212-1.444-30.294-2.767c-5.04-0.704-10.07-1.463-15.097-2.789
				c-1.258-0.343-2.515-0.725-3.786-1.25c-0.636-0.264-1.275-0.559-1.938-0.995c-0.329-0.215-0.669-0.468-1.012-0.836
				c-0.166-0.154-0.344-0.432-0.494-0.662c-0.146-0.309-0.288-0.601-0.325-1.002c-0.114-0.776,0.21-1.526,0.539-1.963
				c0.334-0.441,0.684-0.733,1.017-0.977c0.67-0.482,1.312-0.785,1.951-1.065c1.276-0.548,2.532-0.926,3.791-1.277
				c5.035-1.307,10.067-2.025,15.11-2.692c5.042-0.642,10.088-1.141,15.137-1.57c10.099-0.837,20.205-1.452,30.319-1.803
				c10.113-0.359,20.226-0.617,30.34-0.665l30.336,0.184v0.3l-30.306,0.884c-10.098,0.3-20.189,0.786-30.269,1.385
				c-10.077,0.636-20.151,1.296-30.185,2.291c-5.016,0.494-10.023,1.059-15,1.762c-4.962,0.722-9.952,1.515-14.688,2.816
				c-1.172,0.33-2.34,0.693-3.384,1.149c-0.517,0.225-1.018,0.481-1.372,0.742c-0.178,0.126-0.305,0.258-0.354,0.32
				c-0.035,0.072,0.038-0.048,0.023-0.195c-0.028-0.079-0.008-0.091-0.037-0.107c0.04,0.02,0.007,0.031,0.08,0.088
				c0.088,0.094,0.252,0.232,0.453,0.356c0.393,0.26,0.904,0.505,1.435,0.72c1.066,0.437,2.233,0.792,3.413,1.108
				c4.756,1.238,9.747,1.981,14.715,2.653c9.962,1.321,20.016,2.194,30.077,2.893c20.128,1.411,40.321,2.109,60.515,2.426
				c20.196,0.28,40.402,0.159,60.591-0.456c10.094-0.313,20.185-0.749,30.261-1.384c10.073-0.648,20.144-1.448,30.138-2.749
				c4.987-0.67,9.99-1.41,14.81-2.697c1.194-0.336,2.389-0.699,3.484-1.196c0.55-0.24,1.074-0.528,1.488-0.859
				c0.208-0.164,0.367-0.346,0.453-0.504c0.089-0.162,0.079-0.254,0.036-0.403c-0.102-0.309-0.57-0.701-1.05-0.988
				c-0.495-0.299-1.05-0.549-1.614-0.779c-1.135-0.455-2.329-0.818-3.535-1.141c-4.84-1.269-9.84-2.043-14.828-2.748
				c-4.997-0.684-10.016-1.236-15.043-1.716c-20.113-1.881-40.318-2.801-60.521-3.357L199.371,184.645z"/>
		</g>
		<path class="st3" d="M199.368,184.734"/>
		<path class="st3" d="M169.577,184.481"/>
		<g>
			<path class="st2" d="M195.973,191.072c17.743,0.109,35.488,0.382,53.226,1.092c8.869,0.394,17.735,0.778,26.593,1.81
				c1.108,0.14,2.215,0.298,3.325,0.502c0.556,0.106,1.111,0.221,1.674,0.375c0.282,0.078,0.564,0.162,0.858,0.281
				c0.148,0.059,0.296,0.125,0.458,0.219c0.084,0.055,0.156,0.086,0.254,0.173c0.086,0.069,0.183,0.154,0.282,0.315
				c0.085,0.112,0.18,0.42,0.125,0.618c-0.02,0.109-0.059,0.232-0.104,0.315c-0.042,0.063-0.088,0.125-0.138,0.184
				c-0.194,0.215-0.362,0.306-0.514,0.389c-0.314,0.171-0.594,0.262-0.881,0.359c-0.567,0.179-1.122,0.309-1.678,0.428
				c-1.11,0.231-2.216,0.403-3.323,0.561c-4.427,0.608-8.855,0.975-13.287,1.312c-17.728,1.238-35.474,1.774-53.22,2.188
				c-17.747,0.386-35.498,0.55-53.249,0.531c-17.752-0.007-35.505-0.187-53.261-0.689c-8.877-0.284-17.755-0.617-26.637-1.208
				c-4.442-0.319-8.878-0.67-13.344-1.258c-1.118-0.152-2.238-0.32-3.377-0.544c-0.573-0.116-1.143-0.237-1.751-0.417
				c-0.304-0.09-0.618-0.192-0.971-0.345c-0.079-0.029-0.192-0.091-0.289-0.142c-0.104-0.057-0.185-0.091-0.33-0.199l-0.191-0.144
				c-0.051-0.037-0.13-0.104-0.229-0.221c-0.089-0.101-0.171-0.211-0.243-0.323c-0.072-0.103-0.177-0.373-0.215-0.576
				c-0.049-0.221-0.055-0.432-0.006-0.664c0.041-0.227,0.135-0.462,0.205-0.564c0.077-0.131,0.174-0.265,0.266-0.37
				c0.068-0.068,0.138-0.133,0.212-0.196c0.285-0.234,0.487-0.33,0.674-0.423c0.38-0.181,0.689-0.279,0.999-0.374
				c0.611-0.181,1.188-0.31,1.759-0.422c1.142-0.224,2.261-0.388,3.381-0.538c8.929-1.039,17.788-1.399,26.672-1.78
				c8.878-0.332,17.754-0.596,26.631-0.677c8.877-0.096,17.753-0.152,26.628-0.101c8.876,0.127,17.749,0.198,26.621,0.374v0.3
				c-17.74,0.538-35.476,0.807-53.196,1.517c-8.859,0.367-17.718,0.677-26.563,1.171c-8.83,0.514-17.712,1.02-26.395,2.169
				c-1.078,0.148-2.153,0.312-3.187,0.52c-0.516,0.103-1.022,0.222-1.473,0.358c-0.22,0.067-0.439,0.145-0.558,0.206
				c-0.063,0.024-0.106,0.065-0.034,0.008c0.021-0.017,0.04-0.037,0.055-0.059c0.051-0.049,0.111-0.125,0.147-0.199
				c0.021-0.049,0.11-0.213,0.134-0.372c0.021-0.164,0.022-0.308,0.001-0.462c-0.014-0.139-0.12-0.333-0.147-0.383
				c-0.028-0.058-0.066-0.114-0.111-0.162c-0.06-0.059-0.088-0.079-0.08-0.079l-0.024-0.021c-0.038-0.017,0.009,0.003,0.027,0.012
				c0.027,0.012,0.032,0.023,0.084,0.041c0.156,0.066,0.37,0.14,0.598,0.204c0.455,0.134,0.972,0.243,1.486,0.344
				c1.038,0.199,2.113,0.358,3.193,0.499c4.333,0.551,8.747,0.883,13.153,1.18c8.821,0.6,17.672,1.02,26.526,1.349
				c17.709,0.691,35.441,1.061,53.173,1.258c17.733,0.169,35.469,0.156,53.201-0.08c17.729-0.263,35.468-0.65,53.152-1.735
				c4.417-0.286,8.838-0.604,13.208-1.154c1.09-0.143,2.178-0.301,3.242-0.509c0.53-0.107,1.056-0.225,1.549-0.375
				c0.239-0.076,0.488-0.161,0.662-0.256c0.094-0.04,0.164-0.105,0.155-0.093c-0.006,0.005-0.008,0.014-0.006,0.023
				c-0.016,0.022-0.044,0.074-0.044,0.117c0.004,0.044-0.002,0.088,0.007,0.137c0.015,0.052,0.039,0.085,0.035,0.091
				c0.073,0.069-0.176-0.124-0.378-0.189c-0.219-0.092-0.468-0.171-0.719-0.243c-0.505-0.144-1.035-0.261-1.567-0.369
				c-1.069-0.209-2.156-0.377-3.247-0.528c-8.758-1.122-17.631-1.609-26.478-2.101c-17.711-0.909-35.449-1.382-53.187-1.691
				L195.973,191.072z"/>
		</g>
	</g>
</g>
</svg>
