<svg xmlns="http://www.w3.org/2000/svg" viewBox="0 0 44.58 44.39"><defs><style>.cls-1{fill:#fff;}</style></defs><title>Whatsapp</title><g id="Layer_2" data-name="Layer 2"><g id="Layer_4" data-name="Layer 4"><path class="cls-1" d="M19.89,15.56l-2.57-5s-2-.37-2.34.06-5,3.61-.26,10.62c0,0,4.67,8.11,13.74,9.89,0,0,4.24.77,6.35-2.46L35.24,26l-5.68-2.71-2.63,3S20.57,24.38,18.37,19Z" transform="translate(0 0)"/><path class="cls-1" d="M37.53,5.73C21.82-7.61,8,6.52,8,6.52-2.6,17.94,5.88,32.18,5.88,32.18L0,44.39l13.11-5.31c17.18,8.13,26.68-5.2,26.68-5.2C51.77,17.94,37.53,5.73,37.53,5.73ZM37,32S29,43.15,14.6,36.34l-11,4.45L8.54,30.56s-7.1-11.93,1.8-21.5c0,0,11.55-11.83,24.72-.66C35.06,8.4,47,18.63,37,32Z" transform="translate(0 0)"/></g></g></svg>